<svg width="17" height="16" viewBox="0 0 17 16" fill="none" xmlns="http://www.w3.org/2000/svg">
<path fill-rule="evenodd" clip-rule="evenodd" d="M1.39574 3.79113C3.23288 1.86154 7.99176 -0.668581 12.3302 4.64763C12.006 3.78128 10.7504 1.88319 8.32185 1.22162C10.0313 1.43821 13.3676 2.97597 13.0375 7.39433C12.7074 9.63895 11.2691 10.5939 10.5913 10.7908C11.7702 9.97367 13.6093 7.54791 11.5344 4.38181C11.9462 5.56217 12.2273 8.17936 10.1666 9.42675C10.0669 9.48705 10.0018 9.59344 10.0018 9.70988C10.0018 9.92357 10.2087 10.072 10.4002 9.97732C10.9411 9.70984 11.6596 9.18124 11.9175 8.36897C11.7603 9.18609 10.7681 10.779 8.0566 10.6136C8.47904 10.968 9.69528 11.5469 11.1807 11.0271C13.1849 10.3257 14.1869 7.86689 13.9806 5.68133C13.789 3.65101 12.3007 0.985345 8.705 0.128845C5.10932 -0.727655 1.57258 2.93463 1.39574 3.79113ZM3.7043 14.595C1.82259 12.709 -0.589338 7.88187 4.81658 3.66095C3.94464 3.96531 2.02144 5.17838 1.30418 7.59574C1.56055 5.88833 3.17334 2.58221 7.57346 3.01708C9.80499 3.4007 10.7238 4.86409 10.9042 5.54784C10.1168 4.34752 7.74016 2.44789 4.53263 4.45189C5.71994 4.06718 8.33765 3.84728 9.53347 5.94129C9.59121 6.0424 9.69599 6.11014 9.81239 6.11289C10.0255 6.11793 10.1785 5.91529 10.089 5.72185C9.8352 5.17348 9.32455 4.43989 8.51939 4.16206C9.33087 4.3388 10.8966 5.3704 10.6677 8.08292C11.0312 7.66807 11.6374 6.46327 11.1538 4.96289C10.5014 2.93856 8.072 1.8767 5.88675 2.03185C3.85672 2.17598 1.16227 3.60413 0.223019 7.18614C-0.716233 10.7681 2.854 14.3976 3.7043 14.595ZM3.72479 11.3976C8.11349 16.6721 12.8481 14.0967 14.6668 12.1497C14.4981 13.0079 10.9964 16.7037 7.39271 15.8816C3.78905 15.0594 2.2755 12.4081 2.06457 10.3797C1.8375 8.19617 2.81617 5.72786 4.81357 5.00745C6.29399 4.4735 7.51568 5.04074 7.94147 5.39111C5.22853 5.25159 4.25145 6.85388 4.10204 7.67246C4.35222 6.85777 5.06567 6.32233 5.604 6.04971C5.79464 5.95316 6.00291 6.09965 6.00494 6.31333C6.00605 6.42977 5.94192 6.53677 5.84288 6.59802C3.79411 7.86502 4.10006 10.4794 4.52304 11.6558C2.41817 8.50962 4.23415 6.06642 5.40524 5.23809C4.72927 5.44145 3.30014 6.41007 2.99138 8.65774C2.70327 13.079 6.05405 14.5849 7.76545 14.7852C5.33072 14.1468 4.0572 12.2608 3.72479 11.3976ZM12.3236 1.21064C14.2373 3.06404 16.7314 7.8491 11.3984 12.1622C12.265 11.8429 14.1672 10.597 14.843 8.16768C14.6159 9.87925 13.0598 13.2126 8.65291 12.8533C6.41516 12.508 5.4715 11.0606 5.2794 10.38C6.08719 11.5667 8.49597 13.4252 11.6688 11.3665C10.4882 11.7715 7.87465 12.0363 6.64322 9.96312C6.58376 9.86302 6.47784 9.79708 6.36141 9.79633C6.14827 9.79495 5.99869 10.0002 6.09152 10.1921C6.35465 10.736 6.87777 11.4607 7.68756 11.7247C6.87317 11.5619 5.29005 10.5573 5.47259 7.84127C5.1162 8.2623 4.53069 9.47733 5.03982 10.9692C5.72673 12.982 8.17393 14.002 10.3562 13.8094C12.3835 13.6305 15.0531 12.1563 15.931 8.55868C16.8089 4.96107 13.1772 1.39337 12.3236 1.21064Z" fill="url(#paint0_radial_756_571)"/>
<defs>
<radialGradient id="paint0_radial_756_571" cx="0" cy="0" r="1" gradientUnits="userSpaceOnUse" gradientTransform="translate(8.22126 8.36958) rotate(-90) scale(10.8477 12.1774)">
<stop stop-color="#BFC1FF"/>
<stop offset="0.99" stop-color="#467DFF"/>
</radialGradient>
</defs>
</svg>
