<svg width="48" height="49" viewBox="0 0 48 49" fill="none" xmlns="http://www.w3.org/2000/svg">
<path d="M24 0.25C27.3887 0.25 30.5416 0.852508 33.4584 2.05753C36.3753 3.26255 38.9062 4.9585 41.0509 7.1454C43.2386 9.33228 44.933 11.8762 46.134 14.7772C47.378 17.6335 48 20.7577 48 24.1496C48 27.4969 47.378 30.6433 46.134 33.5889C44.933 36.5345 43.2386 39.1008 41.0509 41.2877C38.9062 43.4745 36.3753 45.1928 33.4584 46.4425C30.5416 47.6475 27.3887 48.25 24 48.25C20.6113 48.25 17.4584 47.6475 14.5416 46.4425C11.6676 45.1928 9.13673 43.4745 6.94906 41.2877C4.76139 39.1008 3.04558 36.5568 1.80161 33.6559C0.600536 30.7103 0 27.5415 0 24.1496C0 20.7577 0.600536 17.6112 1.80161 14.7102C3.04558 11.8093 4.76139 9.28765 6.94906 7.1454C9.13673 4.9585 11.6676 3.26255 14.5416 2.05753C17.4584 0.852508 20.6113 0.25 24 0.25Z" fill="#214FF6"/>
<path d="M33.4184 16.8098C23.9503 5.11864 13.5646 10.6828 9.55521 14.9263C9.94113 13.0427 17.6597 4.98873 25.5069 6.87231C33.3541 8.75589 36.6022 14.6181 37.0204 19.0831C37.4707 23.8895 35.2837 29.2969 30.9099 30.8393C27.6681 31.9824 25.0138 30.7094 24.0918 29.93C30.0094 30.2937 32.1749 26.7907 32.5179 24.9937C31.9562 26.7765 30.3931 27.9379 29.2135 28.5272C28.7927 28.7374 28.337 28.4112 28.337 27.9409C28.337 27.6857 28.4794 27.4525 28.6972 27.3196C33.1938 24.5762 32.5804 18.821 31.6818 16.2253C36.21 23.188 32.1963 28.5227 29.6235 30.3197C31.1029 29.8867 34.2417 27.7866 34.9621 22.8503C35.6825 13.1336 28.4014 9.75181 24.6707 9.2755C29.9708 10.7304 32.7109 14.9046 33.4184 16.8098Z" fill="white"/>
<path d="M17.0213 14.6406C5.22344 23.9231 10.4872 34.5388 14.5939 38.6863C12.7382 38.2523 4.9465 30.2704 6.99632 22.393C9.04614 14.5156 14.9265 11.3749 19.3568 11.0579C24.1259 10.7167 29.4279 13.0519 30.8517 17.5037C31.907 20.8033 30.5841 23.4529 29.7907 24.3652C30.2903 18.3999 26.8733 16.1313 25.1023 15.7426C26.863 16.3548 27.9784 17.9733 28.5311 19.1801C28.7247 19.6027 28.3904 20.0439 27.9258 20.0328C27.6709 20.0267 27.4415 19.8779 27.3158 19.656C24.7062 15.0503 18.9929 15.5339 16.4016 16.38C23.4017 11.9728 28.5885 16.1505 30.3069 18.7901C29.9131 17.2865 27.908 14.0682 23.0379 13.2246C13.4351 12.2682 9.91535 19.5389 9.35584 23.2938C10.9212 17.9776 15.1184 15.3099 17.0213 14.6406Z" fill="white"/>
<path d="M14.638 31.6547C24.2159 43.2544 34.5488 37.5907 38.5179 33.3088C38.1498 35.196 30.5075 43.3238 22.6429 41.5158C14.7783 39.7077 11.4751 33.8769 11.0148 29.4162C10.5192 24.6143 12.6551 19.1861 17.0142 17.6018C20.2451 16.4276 22.9113 17.675 23.8405 18.4455C17.9198 18.1387 15.7874 21.6624 15.4613 23.4626C16.0063 21.6745 17.5583 20.4981 18.7323 19.8974C19.1511 19.6832 19.6098 20.005 19.6143 20.4754C19.6167 20.7305 19.4766 20.9651 19.26 21.1001C14.7894 23.8865 15.4571 29.6356 16.3802 32.2226C11.7865 25.3037 15.7497 19.9307 18.3055 18.109C16.8302 18.5562 13.7113 20.6864 13.0375 25.6294C12.4087 35.3526 19.7214 38.6642 23.4564 39.1046C18.1428 37.7007 15.3635 33.5531 14.638 31.6547Z" fill="white"/>
<path d="M31.3846 33.3359C43.0233 23.8507 37.5802 13.3276 33.4039 9.25164C35.2667 9.6535 43.1925 17.4994 41.2766 25.4112C39.3607 33.3229 33.5344 36.5648 29.1101 36.9584C24.3475 37.382 19.0068 35.1388 17.5077 30.7123C16.3965 27.4314 17.6743 24.7594 18.4521 23.8335C18.0538 29.8065 21.5088 32.0157 23.2861 32.3737C21.5152 31.792 20.3726 30.193 19.7994 28.996C19.5987 28.5768 19.9255 28.1299 20.3902 28.133C20.6452 28.1346 20.8771 28.2795 21.0066 28.4992C23.6939 33.0591 29.3981 32.4767 31.9747 31.586C25.0503 36.1135 19.7934 32.0262 18.0305 29.4166C18.4498 30.9133 20.5092 34.0964 25.3929 34.8557C35.0105 35.6458 38.4064 28.3153 38.9022 24.5513C37.4272 29.8938 33.2759 32.6337 31.3846 33.3359Z" fill="white"/>
</svg>
