<svg width="17" height="16" viewBox="0 0 17 16" fill="none" xmlns="http://www.w3.org/2000/svg">
<path d="M13.9821 8.53813C14.089 8.28 14.089 7.95187 14.089 7.29688C14.089 6.64188 14.089 6.31375 13.9821 6.05562C13.9114 5.88496 13.8078 5.72989 13.6772 5.59927C13.5466 5.46865 13.3915 5.36505 13.2209 5.29437C12.9627 5.1875 12.6346 5.1875 11.9796 5.1875H7.90149C7.11399 5.1875 6.72024 5.1875 6.41961 5.34062C6.15478 5.47549 5.93948 5.69079 5.80461 5.95563C5.65149 6.25563 5.65149 6.64938 5.65149 7.4375V11.5156C5.65149 12.1706 5.65149 12.4988 5.75836 12.7569C5.90149 13.1013 6.17524 13.3756 6.51961 13.5181C6.77774 13.625 7.10586 13.625 7.76086 13.625C8.41586 13.625 8.74399 13.625 9.00211 13.5181M13.9821 8.53813C13.9114 8.70879 13.8078 8.86386 13.6772 8.99448C13.5466 9.1251 13.3915 9.2287 13.2209 9.29937C12.9627 9.40625 12.6346 9.40625 11.9796 9.40625C11.3246 9.40625 10.9965 9.40625 10.7384 9.51313C10.5677 9.5838 10.4126 9.6874 10.282 9.81802C10.1514 9.94864 10.0478 10.1037 9.97711 10.2744C9.87024 10.5325 9.87024 10.8606 9.87024 11.5156C9.87024 12.1706 9.87024 12.4988 9.76336 12.7569C9.69269 12.9275 9.58909 13.0826 9.45847 13.2132C9.32785 13.3438 9.17278 13.4475 9.00211 13.5181M13.9821 8.53813C13.646 9.69749 13.0276 10.7554 12.1822 11.6171C11.3369 12.4788 10.2911 13.1173 9.13836 13.4756L9.00211 13.5181M11.2765 5.1875V4.625C11.2765 3.8375 11.2765 3.44375 11.1234 3.14313C10.9887 2.87838 10.7736 2.66309 10.509 2.52813C10.2077 2.375 9.81399 2.375 9.02649 2.375H5.08899C4.30149 2.375 3.90774 2.375 3.60711 2.52813C3.34228 2.66299 3.12698 2.87829 2.99211 3.14313C2.83899 3.44313 2.83899 3.83688 2.83899 4.625V8.5625C2.83899 9.35 2.83899 9.74375 2.99211 10.0444C3.12711 10.3094 3.34211 10.5244 3.60711 10.6594C3.90711 10.8125 4.30149 10.8125 5.08961 10.8125H5.65149" stroke="#99A0AD" stroke-linecap="round" stroke-linejoin="round"/>
</svg>
