<svg width="20" height="20" viewBox="0 0 20 20" fill="none" xmlns="http://www.w3.org/2000/svg">
<path d="M13.7332 6.26662L11.5999 5.19995L11.0666 5.73328H8.93325L8.39991 5.19995L6.26658 6.26662C4.66658 8.39995 4.66658 9.99995 4.66658 12.1333L7.33325 13.7333L7.86658 12.6666L7.33325 12.1333H12.6666L12.1332 12.6666L12.6666 13.7333L15.3332 12.1333C15.3332 9.99995 14.7999 7.86662 13.7332 6.26662ZM8.39991 11.0666L7.33325 9.99995L8.39991 8.93328L8.93325 9.99995L8.39991 11.0666ZM11.5999 11.0666L11.0666 9.99995L11.5999 8.93328L12.6666 9.99995L11.5999 11.0666Z" fill="#303030"/>
<rect x="0.3125" y="0.3125" width="19.375" height="19.375" rx="4.6875" stroke="#E9ECEF" stroke-width="0.625"/>
</svg>
