<svg width="20" height="20" viewBox="0 0 20 20" fill="none" xmlns="http://www.w3.org/2000/svg">
<g clip-path="url(#clip0_4530_36835)">
<rect x="0.3125" y="0.3125" width="19.375" height="19.375" rx="4.6875" stroke="#E9ECEF" stroke-width="0.625"/>
<path d="M4.84439 6.97485C4.66667 7.57188 4.66667 8.39551 4.66667 9.66659C4.66667 11.472 4.66667 12.3747 5.17596 13.0075C5.34044 13.2119 5.53953 13.3917 5.76591 13.5401C6.46689 13.9999 7.46681 13.9999 9.46667 13.9999H10.5333C12.5332 13.9999 13.5331 13.9999 14.2341 13.5401C14.4605 13.3917 14.6596 13.2119 14.8241 13.0075C15.3333 12.3747 15.3333 11.472 15.3333 9.66659C15.3333 8.39128 15.3333 7.56639 15.1538 6.96889L14.0324 7.98133C13.1618 8.76725 12.4796 9.38315 11.8757 9.79909C11.2576 10.2248 10.6748 10.475 9.99993 10.475C9.32502 10.475 8.74223 10.2248 8.12414 9.79909C7.52026 9.38315 6.83804 8.76724 5.96749 7.98132L4.92473 7.03994L4.84439 6.97485Z" fill="#303030"/>
<path d="M5.20001 6.29621L5.25806 6.33958L5.47514 6.51546L6.51154 7.4511C7.40842 8.26079 8.05323 8.84182 8.6094 9.22491C9.15633 9.60163 9.57027 9.75274 9.99993 9.75274C10.4296 9.75274 10.8435 9.60163 11.3905 9.22491C11.9466 8.84182 12.5914 8.26079 13.4883 7.4511L14.7192 6.33989L14.7862 6.27974C14.6217 6.07537 14.4605 5.94151 14.2341 5.79303C13.5331 5.33325 12.5332 5.33325 10.5333 5.33325H9.46667C7.46681 5.33325 6.46689 5.33325 5.76591 5.79303C5.53953 5.94151 5.36448 6.09184 5.20001 6.29621Z" fill="#303030"/>
</g>
<defs>
<clipPath id="clip0_4530_36835">
<rect width="20" height="20" rx="5" fill="white"/>
</clipPath>
</defs>
</svg>
