<svg width="20" height="20" viewBox="0 0 20 20" fill="none" xmlns="http://www.w3.org/2000/svg">
<path d="M16.5329 9.28265H15.294V5.32333L12.7598 3.96387V2.03278C12.7598 1.66107 12.4583 1.35962 12.0865 1.35962H3.03554C2.66373 1.35962 2.36227 1.66097 2.36227 2.03278V17.1637H1.21857V18.4808H3.03552H12.0865H13.9034V17.1637H12.7597V10.2356H14.3408V16.3907C14.3408 17.5994 15.3242 18.5828 16.5329 18.5828C17.7416 18.5828 18.7248 17.5993 18.7248 16.3907V11.4745C18.7248 10.2658 17.7415 9.28265 16.5329 9.28265ZM3.50606 2.60737H11.4773V8.60948H3.50606V2.60737ZM9.82407 12.903V13.7227H7.97101V15.7893H7.15112V13.7227H5.29794V12.903H7.15112V12.0831H5.29794V11.2632H6.30928L5.89977 10.0347H6.85838L7.26789 11.2632H7.85425L8.26387 10.0347H9.22236L8.81286 11.2632H9.82407V12.0831H7.97101V12.903H9.82407ZM14.3409 9.28265H12.7598V5.04542L14.3409 5.89353V9.28265ZM17.7718 16.3907C17.7718 17.0739 17.216 17.6297 16.5329 17.6297C15.8498 17.6297 15.294 17.0738 15.294 16.3907V10.2356H16.5329C17.216 10.2356 17.7718 10.7915 17.7718 11.4746V16.3907Z" fill="#272636"/>
</svg>
