<svg viewBox="0 0 20 20" fill="none"
  xmlns="http://www.w3.org/2000/svg">
  <circle cx="10" cy="10" r="10" fill="#CE1D0E"/>
  <path d="M12.9566 10.2792V12.1781C12.9566 13.1331 12.1824 13.9073 11.2274 13.9073V13.9073V11.9748C11.3627 11.8571 11.4972 11.7362 11.6325 11.6129C12.112 11.1718 12.5555 10.7235 12.9566 10.2792Z" fill="white"/>
  <path d="M12.9566 5.86979V7.70626C12.3217 8.4924 11.5228 9.34259 10.6078 10.1824C10.3932 10.3793 10.1795 10.569 9.96651 10.7532H8.52952V11.8988C7.91389 12.3503 7.32789 12.7265 6.80032 13.0139V7.59899C6.80032 6.64398 7.57451 5.86979 8.52952 5.86979V5.86979V9.072H11.2274V7.59898C11.2274 6.64398 12.0016 5.86979 12.9566 5.86979V5.86979Z" fill="white"/>
  <path d="M12.9566 10.2792C12.5555 10.7235 12.112 11.1718 11.6325 11.6129C11.498 11.7362 11.3627 11.8571 11.2274 11.9748C8.61038 14.2572 5.96055 15.4084 5.18161 14.5606C4.84378 14.1923 4.91022 13.5062 5.29769 12.6497C5.18562 13.1028 5.22084 13.4646 5.42898 13.6912C6.15589 14.4821 8.71526 13.3141 11.1449 11.0814C11.173 11.0558 11.2002 11.0301 11.2274 11.0053C11.8927 10.3873 12.4763 9.75405 12.9566 9.14483C14.195 7.57574 14.7466 6.16997 14.2287 5.60638C14.0213 5.38063 13.6651 5.31498 13.2056 5.38703C14.0894 5.07562 14.777 5.06761 15.1141 5.43506C15.7913 6.17077 14.8483 8.18256 12.9566 10.2792Z" fill="white"/>
  <path d="M14.1142 6.0298C14.0886 6.599 13.6675 7.44758 12.9566 8.39704C12.417 9.11834 11.711 9.89728 10.884 10.657C10.8488 10.689 10.8135 10.721 10.7791 10.7531C10.013 11.4471 9.24124 12.0348 8.52955 12.4855C8.07003 12.7769 7.63533 13.0106 7.24306 13.1787C6.65946 13.4285 6.16952 13.5334 5.83089 13.4645C6.12309 13.3573 6.44891 13.206 6.80036 13.0146C7.32792 12.7272 7.91393 12.351 8.52955 11.8995C8.99547 11.5568 9.47821 11.1734 9.96655 10.7531C10.1795 10.5697 10.394 10.3792 10.6078 10.1823C11.522 9.34169 12.3218 8.49151 12.9566 7.70616C13.4482 7.09694 13.842 6.52695 14.1142 6.0298Z" fill="white"/>
  <path d="M9.97317 18.816C10.0823 18.816 10.1707 18.7276 10.1707 18.6185C10.1707 18.5094 10.0823 18.4209 9.97317 18.4209C9.86406 18.4209 9.7756 18.5094 9.7756 18.6185C9.7756 18.7276 9.86406 18.816 9.97317 18.816Z" fill="white"/>
  <path fill-rule="evenodd" clip-rule="evenodd" d="M12.5064 1.61056L12.5064 1.61056C12.618 1.79344 12.7214 1.96285 12.9033 2.05379C13.1667 2.1855 13.3972 2.15257 13.496 2.11964C13.463 1.955 13.2984 1.69158 13.0679 1.62573C12.9853 1.60256 12.9224 1.59665 12.8636 1.59112C12.7302 1.57857 12.6177 1.568 12.3435 1.3623C12.4046 1.44386 12.4563 1.52856 12.5064 1.61056ZM13.6245 1.40195C13.6477 1.49242 13.6614 1.58927 13.6751 1.68564C13.7042 1.89092 13.733 2.09398 13.8517 2.22843C14.0054 2.4057 14.1829 2.41331 14.2867 2.41776C14.2986 2.41827 14.3095 2.41873 14.3193 2.41941C14.349 2.27124 14.3029 1.99794 14.1349 1.86623C14.074 1.81926 14.0236 1.79291 13.9768 1.76841C13.8694 1.71219 13.7805 1.66569 13.6245 1.40195ZM13.2396 2.45914C13.1511 2.50213 13.062 2.54544 12.9726 2.57739C13.2774 2.55905 13.3653 2.60612 13.4716 2.66308C13.518 2.68796 13.568 2.71471 13.641 2.73873C13.8419 2.80129 14.0954 2.68605 14.2008 2.58068C14.1952 2.57351 14.1893 2.56534 14.1827 2.55641L14.1827 2.55641C14.1231 2.47508 14.017 2.33046 13.7826 2.30079C13.6066 2.28074 13.4246 2.36922 13.2396 2.45914ZM14.708 1.92886C14.7187 2.02449 14.7186 2.12469 14.7185 2.22396C14.7182 2.42886 14.718 2.62977 14.8134 2.77839C14.9441 2.98206 15.1253 3.01174 15.2249 3.02805L15.248 3.03193C15.2974 2.89034 15.2908 2.61375 15.1459 2.45899C15.0924 2.40346 15.0463 2.37052 15.0033 2.33978C14.906 2.27027 14.8244 2.21195 14.708 1.92886ZM14.1706 2.9212L14.1706 2.9212C14.0783 2.95055 13.9856 2.98005 13.8945 2.9989C14.1965 3.02387 14.2777 3.0833 14.3735 3.15342C14.4167 3.18498 14.4628 3.21871 14.5333 3.25244C14.7276 3.34464 14.9943 3.26561 15.1128 3.17671C15.1077 3.16789 15.1022 3.15768 15.0961 3.14641C15.0476 3.05663 14.9627 2.89935 14.7374 2.84084C14.5645 2.79593 14.3686 2.85823 14.1706 2.9212ZM15.6989 2.61028C15.6946 2.70497 15.6794 2.80274 15.6642 2.89984C15.6325 3.10326 15.6012 3.30369 15.6726 3.4664C15.767 3.68178 15.9354 3.74119 16.031 3.7749L16.031 3.77491L16.0311 3.77492C16.0421 3.77882 16.0522 3.78238 16.0611 3.7858C16.1303 3.65409 16.1665 3.37749 16.0446 3.20298C16.0009 3.13889 15.9609 3.09869 15.9236 3.0611C15.84 2.97704 15.7694 2.90609 15.6989 2.61028ZM15.0206 3.5075C14.9235 3.52265 14.8257 3.5379 14.731 3.54216C15.0261 3.6148 15.0974 3.68589 15.1812 3.76943C15.219 3.80706 15.2593 3.84722 15.3237 3.89119C15.5015 4.01303 15.7748 3.9768 15.9065 3.90436C15.9031 3.89546 15.8995 3.88535 15.8956 3.87426C15.8619 3.77867 15.8025 3.61023 15.5871 3.51582C15.4244 3.44449 15.224 3.47576 15.0206 3.5075ZM16.5516 3.36419C16.538 3.45628 16.5138 3.55038 16.4897 3.64393C16.4379 3.84472 16.3868 4.04301 16.443 4.21372C16.5163 4.43676 16.676 4.51071 16.7705 4.55446L16.7705 4.55446L16.7705 4.55446L16.7706 4.5545C16.7821 4.55982 16.7926 4.56469 16.8019 4.56934C16.8842 4.44421 16.9468 4.17421 16.8447 3.98652C16.8068 3.92067 16.7707 3.8778 16.737 3.83784C16.6596 3.74592 16.5952 3.66943 16.5516 3.36419ZM15.7939 4.19087C15.6944 4.19675 15.5941 4.20267 15.498 4.19728C15.7864 4.2972 15.8509 4.3752 15.9257 4.46584C15.9594 4.50662 15.9952 4.54995 16.0545 4.59899C16.2191 4.73729 16.4957 4.72741 16.634 4.67143C16.6309 4.66109 16.6279 4.64923 16.6245 4.63614L16.6245 4.63612C16.5988 4.53674 16.5549 4.36672 16.3541 4.25325C16.1992 4.16693 15.9981 4.17881 15.7939 4.19087ZM17.2285 4.51623L17.2285 4.51623C17.1512 4.70669 17.075 4.89426 17.1084 5.06983C17.1522 5.29781 17.2998 5.39347 17.3854 5.44894C17.3962 5.45596 17.4061 5.46234 17.4146 5.46826C17.5134 5.3563 17.6122 5.09617 17.5331 4.89861C17.5051 4.82372 17.4747 4.77446 17.4461 4.7282C17.3843 4.62801 17.3312 4.54191 17.329 4.24005C17.3033 4.3321 17.2658 4.4245 17.2285 4.51623ZM16.4643 4.95911C16.3672 4.95209 16.2693 4.94501 16.1765 4.92813C16.4476 5.06482 16.5012 5.15107 16.5641 5.25232C16.5921 5.29741 16.622 5.34547 16.6737 5.40229C16.8153 5.56034 17.0919 5.58669 17.2368 5.54717C17.2353 5.53665 17.234 5.52472 17.2326 5.5116L17.2326 5.51157L17.2326 5.51156C17.2216 5.40965 17.2028 5.23607 17.0162 5.09606C16.8729 4.98865 16.6704 4.974 16.4643 4.95911ZM17.968 5.19824C17.9357 5.28865 17.8914 5.3787 17.8475 5.46806C17.7571 5.65208 17.6681 5.83316 17.6881 6.00826C17.7148 6.24284 17.8593 6.34889 17.9406 6.40851C17.9495 6.415 17.9576 6.42095 17.9647 6.42645C18.07 6.32108 18.1886 6.07083 18.1227 5.86667C18.1008 5.79035 18.0745 5.73925 18.0497 5.69104C17.9964 5.58742 17.95 5.49712 17.968 5.19824ZM17.0622 5.85487L17.0622 5.85486C16.9628 5.84038 16.8626 5.82579 16.7692 5.80082C17.0311 5.9557 17.0772 6.04441 17.132 6.14977C17.1564 6.19673 17.1825 6.24699 17.2302 6.3079C17.3619 6.47583 17.6352 6.52523 17.7834 6.49559C17.7826 6.48524 17.7822 6.47352 17.7817 6.46062V6.4606C17.7778 6.35861 17.7711 6.18293 17.5957 6.02802C17.4633 5.91326 17.2643 5.88429 17.0622 5.85487ZM18.3419 6.48985L18.3419 6.48986C18.2188 6.65724 18.0975 6.82226 18.0863 6.99952C18.0716 7.23521 18.1939 7.36282 18.2646 7.43661L18.2647 7.43662L18.2648 7.43671C18.273 7.44536 18.2806 7.45326 18.2872 7.46051C18.4123 7.3749 18.5704 7.1477 18.544 6.93696C18.5339 6.86123 18.5164 6.80779 18.5 6.75775C18.4629 6.64462 18.4314 6.54885 18.5045 6.25206C18.4573 6.33283 18.3994 6.4116 18.3419 6.48985ZM17.4859 6.73416L17.4859 6.73416L17.4859 6.73416L17.4859 6.73415L17.4858 6.73415L17.4858 6.73414L17.4858 6.73414L17.4858 6.73413L17.4858 6.73413L17.4858 6.73413L17.4858 6.73412L17.4858 6.73412L17.4858 6.73411L17.4857 6.73411L17.4857 6.73411L17.4857 6.7341L17.4857 6.7341L17.4857 6.7341L17.4857 6.7341L17.4857 6.73409L17.4857 6.73409L17.4857 6.73409L17.4857 6.73408L17.4857 6.73408L17.4857 6.73408L17.4857 6.73408L17.4857 6.73407L17.4856 6.73407L17.4856 6.73407C17.3938 6.70353 17.3015 6.67283 17.2168 6.63415C17.4466 6.83431 17.4768 6.93077 17.5125 7.0451C17.5286 7.09627 17.5457 7.15103 17.5824 7.22026C17.6811 7.40795 17.9446 7.50344 18.0927 7.50015C18.0939 7.4897 18.0955 7.47789 18.0974 7.46488C18.1118 7.36308 18.1366 7.18724 17.9907 7.00623C17.8783 6.8647 17.6832 6.79981 17.4859 6.73416ZM18.8765 7.32223C18.8228 7.40173 18.7575 7.47772 18.6928 7.55307C18.5591 7.70866 18.4278 7.8615 18.4056 8.03676C18.3764 8.26786 18.4849 8.4054 18.5487 8.48632L18.5487 8.48636L18.5488 8.48639C18.5568 8.49653 18.5641 8.50578 18.5703 8.51421C18.6987 8.43848 18.8732 8.22445 18.8633 8.01042C18.8593 7.93347 18.8462 7.87831 18.834 7.82666C18.8064 7.71035 18.783 7.61182 18.8765 7.32223ZM17.8271 7.72601C17.7377 7.68844 17.6477 7.65066 17.5658 7.6055C17.7798 7.82174 17.8034 7.91997 17.8313 8.03615C17.8437 8.08804 17.857 8.14351 17.8885 8.21467C17.9742 8.41223 18.2277 8.52419 18.3759 8.53407C18.3779 8.52295 18.3806 8.51041 18.3836 8.49655L18.3836 8.49654C18.4058 8.39544 18.4432 8.22469 18.31 8.03356C18.2069 7.88554 18.0181 7.80626 17.8271 7.72601ZM19.1764 8.54054C19.1097 8.60718 19.0329 8.66873 18.9566 8.72987C18.7953 8.85905 18.6363 8.98643 18.5804 9.15629C18.5078 9.37706 18.5889 9.5312 18.6362 9.62097L18.6362 9.62099L18.6362 9.62101C18.6425 9.63298 18.6482 9.64381 18.6528 9.6535C18.7944 9.60411 19.0052 9.4263 19.0348 9.21227C19.0461 9.13505 19.0436 9.07811 19.0412 9.02454C19.036 8.9068 19.0315 8.80534 19.1764 8.54054ZM18.0705 8.74535L18.0705 8.74535C17.9885 8.69152 17.9059 8.63726 17.8327 8.57686C18.0043 8.83079 18.009 8.93055 18.0147 9.05061V9.05061C18.0171 9.10336 18.0198 9.16003 18.0369 9.23541C18.0863 9.44286 18.3135 9.60091 18.4584 9.63713C18.4622 9.62671 18.467 9.61512 18.4722 9.60239C18.5116 9.50643 18.5777 9.34555 18.4847 9.13334C18.4133 8.97032 18.2434 8.85879 18.0705 8.74535ZM19.2584 9.68956C19.1862 9.75009 19.104 9.8048 19.0223 9.8592C18.8507 9.9735 18.6811 10.0865 18.6097 10.2493C18.5146 10.4661 18.5857 10.6294 18.6271 10.7245C18.6316 10.7349 18.6358 10.7444 18.6393 10.7531C18.7842 10.7169 19.0114 10.5589 19.0608 10.3481C19.0769 10.2738 19.0785 10.2176 19.0801 10.1649C19.0837 10.0449 19.0867 9.94362 19.2584 9.68956ZM18.1382 9.79338C18.0619 9.73224 17.985 9.6707 17.9184 9.60406C18.0632 9.86885 18.0587 9.97031 18.0535 10.0881C18.0512 10.1416 18.0487 10.1986 18.06 10.2758C18.0896 10.4898 18.3004 10.6676 18.4419 10.717C18.4458 10.7095 18.4503 10.7013 18.4552 10.6925C18.5035 10.604 18.5892 10.4473 18.5144 10.2198C18.4585 10.0499 18.2995 9.92256 18.1382 9.79338ZM19.232 10.8389C19.1532 10.8939 19.0649 10.9416 18.9771 10.9888C18.7973 11.0857 18.6203 11.1812 18.534 11.3361C18.4215 11.5433 18.4767 11.7133 18.5081 11.8101C18.5116 11.8209 18.5148 11.8309 18.5175 11.8399C18.6657 11.8168 18.9061 11.6785 18.9719 11.4744C18.9964 11.4008 19.0042 11.3447 19.0114 11.2921C19.0275 11.175 19.0413 11.0751 19.232 10.8389ZM18.1078 10.8423C18.0369 10.7748 17.9657 10.7069 17.9053 10.6349C18.0285 10.9132 18.0142 11.0129 17.9971 11.1322C17.9895 11.1851 17.9813 11.2419 17.9843 11.3198C17.9942 11.5305 18.1918 11.7281 18.3268 11.7906C18.3318 11.7826 18.3376 11.7738 18.344 11.7642L18.344 11.7642C18.4004 11.6791 18.4986 11.5307 18.4453 11.3C18.4051 11.1258 18.2573 10.9849 18.1078 10.8423ZM19.0577 11.998C18.9718 12.0409 18.8779 12.0751 18.7849 12.109C18.5924 12.1791 18.4036 12.2478 18.2971 12.3899C18.1549 12.5794 18.1859 12.7556 18.2031 12.8538L18.2031 12.8538C18.2051 12.8648 18.2068 12.8748 18.2082 12.8838C18.3563 12.8805 18.6165 12.7784 18.712 12.5874C18.7452 12.5199 18.7603 12.4665 18.7744 12.4164C18.8065 12.3028 18.8338 12.2059 19.0577 11.998ZM17.9428 11.837C17.883 11.7602 17.8227 11.6829 17.7732 11.6029C17.8554 11.8974 17.8268 11.9941 17.7928 12.1091C17.7777 12.1599 17.7616 12.2144 17.7535 12.2911C17.7337 12.5051 17.8984 12.7257 18.0235 12.8081C18.0304 12.7997 18.0385 12.7904 18.0474 12.7803L18.0474 12.7802C18.1155 12.7026 18.2316 12.5705 18.2112 12.3405C18.1955 12.1613 18.0701 12.0004 17.9428 11.837ZM18.725 13.1274C18.6349 13.1549 18.5381 13.1732 18.4417 13.1915C18.2386 13.2299 18.0379 13.2679 17.9084 13.3908C17.7344 13.5558 17.738 13.7372 17.7401 13.8378L17.7401 13.8379L17.7403 13.851L17.7404 13.8649C17.8886 13.888 18.1586 13.8287 18.2838 13.6542C18.3297 13.5909 18.3541 13.5393 18.377 13.491C18.4277 13.3838 18.4706 13.2932 18.725 13.1274ZM17.6541 12.7902C17.607 12.7037 17.5594 12.6163 17.5232 12.528C17.555 12.8302 17.5115 12.9223 17.461 13.0294C17.4383 13.0774 17.4142 13.1285 17.3948 13.203C17.3388 13.4104 17.4639 13.6541 17.5759 13.7562C17.5828 13.7502 17.5908 13.7437 17.5996 13.7366C17.6779 13.6729 17.8183 13.5588 17.836 13.3248C17.8494 13.1488 17.7527 12.9713 17.6541 12.7902ZM18.2671 14.2108C18.1753 14.2298 18.0777 14.239 17.9807 14.2482C17.775 14.2675 17.5717 14.2867 17.4308 14.3985C17.2448 14.5461 17.2308 14.7228 17.2228 14.8242C17.2219 14.836 17.2211 14.8467 17.22 14.8562C17.3649 14.8924 17.6415 14.8595 17.7798 14.6982C17.8304 14.6395 17.8592 14.5905 17.8861 14.5447C17.9469 14.4414 17.9979 14.3546 18.2671 14.2108ZM17.2299 13.7727L17.2299 13.7727C17.1911 13.683 17.1521 13.5928 17.1246 13.5029C17.1292 13.8117 17.0774 13.8963 17.0143 13.9994C16.9872 14.0437 16.958 14.0913 16.9303 14.1615C16.8579 14.3623 16.96 14.6225 17.062 14.7311C17.0698 14.7257 17.0787 14.7199 17.0884 14.7135C17.1735 14.6578 17.3233 14.5596 17.3617 14.3261C17.393 14.1495 17.312 13.9623 17.2299 13.7727ZM17.6648 15.2215C17.571 15.2279 17.4728 15.2241 17.3753 15.2203C17.1682 15.2123 16.9642 15.2044 16.8119 15.294C16.6089 15.4146 16.5715 15.5851 16.5494 15.6859L16.5494 15.6859C16.5468 15.6979 16.5444 15.7089 16.5419 15.7188C16.6802 15.7747 16.9568 15.778 17.1181 15.6364C17.1759 15.5858 17.2109 15.5417 17.2437 15.5003L17.2437 15.5003L17.2437 15.5003C17.3174 15.4074 17.3798 15.3287 17.6648 15.2215ZM16.6995 14.6553L16.6995 14.6552C16.6727 14.5596 16.6458 14.4633 16.6307 14.3687C16.592 14.6711 16.5298 14.7506 16.4571 14.8435C16.4245 14.885 16.3898 14.9293 16.3541 14.9976C16.2553 15.1853 16.3212 15.4553 16.4068 15.5771C16.4148 15.5729 16.4238 15.5685 16.4337 15.5637C16.5247 15.5191 16.6845 15.4408 16.7558 15.2149C16.8091 15.0464 16.7547 14.8524 16.6995 14.6553ZM16.937 16.1898C16.8406 16.1811 16.7417 16.1603 16.6437 16.1397C16.4438 16.0977 16.2476 16.0565 16.0841 16.1206C15.8653 16.2064 15.7978 16.3717 15.7601 16.4642C15.7558 16.4747 15.7519 16.4843 15.7482 16.4927C15.8767 16.5684 16.15 16.6211 16.3311 16.5059C16.3964 16.4661 16.438 16.4285 16.4771 16.3931C16.5643 16.3143 16.6393 16.2466 16.937 16.1898ZM16.0785 15.4619C16.0683 15.3656 16.0579 15.2686 16.0579 15.1754C15.9715 15.4688 15.896 15.536 15.8077 15.6146C15.7682 15.6498 15.7261 15.6872 15.6792 15.7483C15.5508 15.9195 15.5739 16.1961 15.6364 16.3311C15.6459 16.328 15.6565 16.3248 15.6681 16.3213C15.7663 16.2916 15.9355 16.2405 16.0415 16.0315C16.1223 15.8721 16.1005 15.6683 16.0785 15.4619ZM16.1072 16.9864C16.0136 16.967 15.9186 16.9357 15.8243 16.9046C15.6299 16.8405 15.4382 16.7774 15.2675 16.8217C15.0458 16.8793 14.96 17.0301 14.909 17.1199C14.9016 17.1328 14.895 17.1444 14.8888 17.1543C15.0074 17.2465 15.2741 17.3255 15.4651 17.2333C15.5387 17.2007 15.5861 17.1675 15.6308 17.1361C15.7261 17.0692 15.8091 17.011 16.1072 16.9864ZM15.3353 16.172C15.3358 16.0749 15.3362 15.9771 15.3467 15.8836C15.229 16.1622 15.147 16.2211 15.0516 16.2897C15.0083 16.3208 14.9622 16.3539 14.9088 16.4104C14.7606 16.5652 14.7507 16.8418 14.8001 16.9834C14.8082 16.9819 14.8172 16.9804 14.8269 16.9788C14.925 16.9628 15.103 16.9337 15.2348 16.7331C15.3334 16.5829 15.3344 16.3792 15.3353 16.172ZM15.2513 17.665C15.1588 17.6381 15.0662 17.5993 14.9745 17.5608C14.7855 17.4814 14.5999 17.4035 14.4248 17.4345C14.1934 17.4755 14.0975 17.6234 14.042 17.7088C14.0351 17.7195 14.0289 17.7291 14.0231 17.7375C14.135 17.8363 14.3919 17.9383 14.5927 17.8626C14.6665 17.8349 14.7154 17.8053 14.7611 17.7777C14.8622 17.7166 14.9474 17.665 15.2513 17.665ZM14.5418 16.79C14.5499 16.6929 14.558 16.5951 14.5759 16.5024C14.4366 16.7742 14.3511 16.8257 14.2481 16.8879C14.2026 16.9153 14.1537 16.9448 14.0952 16.9963C13.9371 17.1379 13.9075 17.4144 13.9437 17.5593C13.9544 17.5578 13.9665 17.5565 13.9799 17.5551C14.0819 17.5441 14.2554 17.5254 14.3981 17.342C14.5078 17.1987 14.5247 16.9961 14.5418 16.79ZM14.2304 18.2903C14.1425 18.2518 14.056 18.2016 13.9702 18.1519C13.7925 18.049 13.6178 17.9478 13.4401 17.9545C13.21 17.9631 13.0955 18.0949 13.0285 18.172L13.0284 18.172L13.0283 18.1722C13.0187 18.1832 13.01 18.1932 13.0022 18.2014C13.101 18.3167 13.3413 18.4484 13.5521 18.399C13.6291 18.3824 13.6818 18.3598 13.7315 18.3385C13.8392 18.2923 13.9331 18.2521 14.2304 18.2903ZM13.6432 17.3289C13.6636 17.2351 13.6842 17.1407 13.7132 17.0524C13.5392 17.3043 13.4464 17.3444 13.3362 17.392C13.2879 17.4128 13.2364 17.4351 13.1732 17.4772C12.9954 17.5957 12.9295 17.8657 12.9493 18.0139C12.9593 18.0139 12.9706 18.0143 12.983 18.0146H12.9831H12.9832H12.9832H12.9833C13.0847 18.0178 13.2596 18.0233 13.4268 17.8591C13.5553 17.7329 13.5989 17.5325 13.6432 17.3289ZM13.1372 18.7744C13.0568 18.7219 12.9799 18.6582 12.9036 18.595C12.7456 18.4642 12.5905 18.3357 12.4128 18.3135C12.185 18.2875 12.0507 18.3954 11.9699 18.4602L11.9699 18.4602L11.9698 18.4603C11.9583 18.4695 11.948 18.4777 11.9386 18.4847C12.0177 18.6131 12.235 18.7843 12.4457 18.7711C12.5258 18.766 12.5825 18.7516 12.6353 18.7382C12.7519 18.7086 12.8494 18.6838 13.1372 18.7744ZM12.7134 17.7339C12.7498 17.6428 12.7864 17.551 12.8309 17.4673C12.6206 17.6822 12.5236 17.7075 12.4089 17.7375C12.3565 17.7512 12.3005 17.7659 12.2283 17.7999C12.034 17.8888 11.9254 18.1456 11.9188 18.2938C11.9303 18.2955 11.9433 18.2979 11.9578 18.3006C12.059 18.3193 12.2287 18.3507 12.416 18.2181C12.5612 18.1153 12.6367 17.9262 12.7134 17.7339ZM11.7961 18.8718L11.796 18.8718C11.654 18.7214 11.5142 18.5735 11.3394 18.5309C11.1149 18.4755 10.9652 18.5699 10.879 18.6242C10.8679 18.6312 10.8578 18.6376 10.8487 18.6429C10.9113 18.7812 11.1056 18.9754 11.3196 18.9886C11.3968 18.9927 11.4529 18.9852 11.5055 18.9781C11.6235 18.9623 11.7233 18.949 12.0012 19.0742C11.9298 19.0133 11.8627 18.9423 11.7961 18.8718ZM11.7084 17.9885C11.7554 17.9032 11.8027 17.8173 11.8563 17.7405C11.6184 17.9286 11.5192 17.942 11.4022 17.9578C11.3492 17.965 11.2925 17.9727 11.2175 17.9973C11.0134 18.0599 10.8751 18.3003 10.8487 18.4484C10.8584 18.4513 10.8693 18.4549 10.8812 18.4588C10.9785 18.491 11.1472 18.5467 11.3525 18.4353C11.5094 18.3501 11.6083 18.1704 11.7084 17.9885Z" fill="white"/>
  <path fill-rule="evenodd" clip-rule="evenodd" d="M7.65117 1.36332C7.59 1.44487 7.53831 1.52958 7.48826 1.61158C7.37665 1.79445 7.27326 1.96386 7.09139 2.0548C6.82796 2.18651 6.59746 2.15358 6.49868 2.12065C6.53161 1.95602 6.69625 1.69259 6.92675 1.62674C7.01018 1.60362 7.07336 1.59768 7.13213 1.59216C7.26584 1.5796 7.37666 1.56919 7.65117 1.36332ZM6.37376 1.40281C6.35062 1.49328 6.33688 1.59014 6.32322 1.68651C6.29411 1.89178 6.26532 2.09485 6.14656 2.2293C5.98991 2.40664 5.81468 2.41418 5.71138 2.41863C5.6996 2.41914 5.68875 2.41961 5.67897 2.42028C5.64934 2.2721 5.69544 1.9988 5.86337 1.86709C5.92391 1.81967 5.97394 1.79328 6.02075 1.76857C6.1267 1.71266 6.21617 1.66545 6.37376 1.40281ZM6.7587 2.46016C6.84713 2.50314 6.93624 2.54645 7.02569 2.5784C6.71726 2.55998 6.62925 2.60754 6.52324 2.66482C6.47759 2.68949 6.42861 2.71596 6.35725 2.73974C6.15639 2.80231 5.90284 2.68706 5.79747 2.58169C5.80301 2.57452 5.809 2.56635 5.81555 2.55742C5.8752 2.47609 5.98127 2.33147 6.21566 2.30181C6.39166 2.28176 6.5737 2.37023 6.7587 2.46016ZM5.27645 2.22496V2.22497C5.27671 2.42987 5.27696 2.63079 5.18158 2.7794C5.05086 2.98307 4.86963 3.01275 4.77002 3.02906L4.74693 3.03295C4.69754 2.89136 4.70412 2.61476 4.849 2.46C4.90252 2.40447 4.94861 2.37154 4.99163 2.34079C5.0889 2.27128 5.17051 2.21297 5.28695 1.92987C5.2762 2.02551 5.27633 2.1257 5.27645 2.22496ZM5.82434 2.92221C5.91664 2.95157 6.0094 2.98106 6.10048 2.99991C5.79848 3.02489 5.71726 3.08431 5.62143 3.15443C5.5783 3.186 5.5322 3.21972 5.46168 3.25345C5.2674 3.34565 5.00068 3.26662 4.88214 3.17772C4.88726 3.16894 4.89275 3.15877 4.89881 3.14755L4.89887 3.14744L4.89888 3.14743C4.94735 3.05764 5.03226 2.90037 5.25752 2.84186C5.43045 2.79694 5.62635 2.85925 5.82434 2.92221ZM4.33405 2.90085L4.33405 2.90085C4.36579 3.10428 4.39706 3.3047 4.32573 3.46741C4.23132 3.6828 4.06288 3.7422 3.96728 3.77591L3.96726 3.77592C3.95618 3.77983 3.94608 3.78339 3.93718 3.78681C3.86803 3.6551 3.83181 3.37851 3.95365 3.20399C3.99699 3.13897 4.03678 3.09853 4.07423 3.06048C4.15626 2.97712 4.22705 2.90518 4.29939 2.61129C4.30365 2.70598 4.3189 2.80376 4.33405 2.90085ZM4.97782 3.50851C5.07492 3.52366 5.1727 3.53892 5.26739 3.54317C4.96807 3.61629 4.89706 3.68782 4.81342 3.77206C4.77652 3.80923 4.73717 3.84886 4.67468 3.89221C4.49687 4.01404 4.22356 3.97782 4.09185 3.90538C4.09527 3.89648 4.09884 3.88637 4.10275 3.87528C4.13646 3.77968 4.19587 3.61124 4.41125 3.51683C4.57396 3.44551 4.77439 3.47678 4.97782 3.50851ZM3.44311 3.3652C3.45672 3.4573 3.48097 3.55139 3.50508 3.64494C3.55683 3.84573 3.60793 4.04402 3.55177 4.21473C3.47841 4.43777 3.31872 4.51172 3.22425 4.55547L3.22424 4.55547L3.22423 4.55548L3.22422 4.55549L3.22419 4.5555L3.22416 4.55551C3.21267 4.56083 3.20214 4.56571 3.19286 4.57035C3.11054 4.44523 3.04797 4.17522 3.15005 3.98753C3.18796 3.92168 3.22406 3.87881 3.25771 3.83885C3.3351 3.74694 3.3995 3.67045 3.44311 3.3652ZM4.20089 4.19188H4.20089H4.20089H4.20089H4.2009H4.2009H4.2009H4.2009H4.20091H4.20091H4.20091H4.20091H4.20091H4.20092H4.20092H4.20092H4.20092H4.20092H4.20093H4.20093H4.20093H4.20093H4.20094H4.20094H4.20094H4.20094H4.20094H4.20095H4.20095H4.20095H4.20095H4.20095H4.20096H4.20096H4.20096C4.3005 4.19776 4.40079 4.20369 4.49683 4.19829C4.21037 4.29832 4.14524 4.37638 4.0695 4.46714C4.03555 4.50783 3.99946 4.55108 3.94034 4.60001C3.7757 4.7383 3.4991 4.72842 3.36081 4.67245C3.36404 4.66154 3.36722 4.64894 3.37075 4.63499C3.39593 4.53533 3.43849 4.36692 3.6407 4.25427C3.79564 4.16794 3.9967 4.17982 4.20089 4.19188ZM2.66609 4.24107C2.69178 4.33312 2.72929 4.42552 2.76654 4.51725C2.84388 4.7077 2.92004 4.89527 2.88671 5.07084C2.84286 5.29882 2.69525 5.39448 2.60966 5.44995C2.59883 5.45697 2.58898 5.46335 2.58047 5.46927C2.48169 5.35731 2.3829 5.09719 2.46193 4.89962C2.4905 4.82617 2.52064 4.77737 2.54874 4.73188C2.61135 4.63054 2.66381 4.5456 2.66609 4.24107ZM3.5304 4.96027C3.62752 4.95325 3.72543 4.94617 3.81826 4.92929C3.54956 5.06477 3.49608 5.1507 3.4338 5.25079C3.40525 5.29666 3.37486 5.3455 3.32105 5.40345C3.17945 5.5615 2.90286 5.58784 2.75797 5.54833C2.75948 5.5378 2.76077 5.52585 2.76219 5.51271C2.77318 5.41081 2.79192 5.23722 2.97859 5.09722C3.12182 4.9898 3.32436 4.97516 3.5304 4.96027ZM2.02708 5.19925C2.05937 5.28966 2.10362 5.37971 2.14752 5.46907C2.23795 5.6531 2.32692 5.83417 2.30697 6.00928C2.28025 6.24385 2.1357 6.3499 2.05444 6.40952L2.0544 6.40955L2.05429 6.40963C2.0455 6.41609 2.03745 6.42199 2.03037 6.42746C1.925 6.32209 1.80646 6.07184 1.87232 5.86769C1.89485 5.79291 1.92089 5.74235 1.94529 5.695C1.9993 5.59012 2.04523 5.50096 2.02708 5.19925ZM2.93265 5.85588L2.93265 5.85588L2.93266 5.85588H2.93266C3.0321 5.8414 3.1323 5.82681 3.22569 5.80183C2.96569 5.95692 2.91894 6.04566 2.86335 6.1512C2.83868 6.19804 2.81226 6.24819 2.76469 6.30892C2.63298 6.47685 2.35968 6.52624 2.2115 6.4966C2.21224 6.48625 2.21269 6.47452 2.21318 6.46162C2.21709 6.35962 2.22381 6.18395 2.39919 6.02903C2.5316 5.91428 2.73056 5.88531 2.93265 5.85588ZM1.49054 6.25307C1.53774 6.33385 1.59564 6.41262 1.65316 6.49087C1.7762 6.65825 1.89751 6.82328 1.90873 7.00053C1.92354 7.23463 1.79969 7.36472 1.72915 7.43881C1.72131 7.44705 1.71412 7.4546 1.70786 7.46152C1.58274 7.37591 1.42468 7.14871 1.45102 6.93797C1.46188 6.86396 1.47924 6.81125 1.49539 6.76219C1.53315 6.64754 1.56433 6.55286 1.49054 6.25307ZM2.5089 6.73518L2.50891 6.73517L2.50892 6.73517C2.60082 6.7046 2.69321 6.67387 2.77795 6.63516C2.55016 6.83561 2.51934 6.93206 2.48275 7.0466C2.46644 7.09763 2.44898 7.15226 2.41244 7.22128C2.31366 7.40896 2.05023 7.50445 1.90206 7.50116C1.90094 7.49071 1.89927 7.47891 1.89743 7.4659L1.89743 7.46589C1.88303 7.36409 1.85816 7.18826 2.00413 7.00725C2.11646 6.86571 2.31156 6.80082 2.5089 6.73518ZM1.11847 7.32324C1.17219 7.40274 1.23747 7.47873 1.30219 7.55408C1.43586 7.70967 1.56716 7.86251 1.58934 8.03777C1.6186 8.26887 1.51011 8.40641 1.44628 8.48733C1.43826 8.4975 1.43095 8.50677 1.4247 8.51522C1.29628 8.43949 1.12176 8.22546 1.13164 8.01143C1.13569 7.93448 1.14877 7.87932 1.16102 7.82767C1.1886 7.71136 1.21196 7.61283 1.11847 7.32324ZM2.16765 7.72703L2.16766 7.72702L2.16767 7.72702L2.16767 7.72702C2.2571 7.68945 2.34703 7.65167 2.42893 7.60652C2.21713 7.82057 2.19343 7.91898 2.16581 8.03364C2.15307 8.08654 2.1395 8.14291 2.10623 8.21568C2.02062 8.41325 1.76707 8.5252 1.61889 8.53508C1.61701 8.52456 1.61449 8.51275 1.61172 8.49977C1.59019 8.39895 1.55348 8.2271 1.68475 8.03458C1.78792 7.88656 1.97663 7.80728 2.16765 7.72703ZM1.03847 8.73088L1.03847 8.73088C1.19976 8.86006 1.35879 8.98745 1.41467 9.15731C1.48729 9.37807 1.40615 9.53221 1.3589 9.62199C1.35259 9.63397 1.34688 9.64482 1.34223 9.65451C1.20063 9.60512 0.989894 9.42731 0.960258 9.21328C0.950168 9.13761 0.953064 9.08141 0.955777 9.02878C0.961916 8.90964 0.967115 8.80876 0.818667 8.54156C0.885306 8.6082 0.962139 8.66974 1.03847 8.73088ZM1.92464 8.74636C2.00665 8.69253 2.08931 8.63827 2.16243 8.57787C1.99265 8.82914 1.98783 8.92946 1.98215 9.04786C1.97956 9.10168 1.9768 9.15924 1.95827 9.23642C1.90888 9.44387 1.68168 9.60192 1.53679 9.63814C1.53293 9.62773 1.52817 9.61613 1.52294 9.6034C1.48352 9.50744 1.41743 9.34656 1.51045 9.13435C1.58191 8.97133 1.75181 8.85981 1.92464 8.74636ZM0.739746 9.69057C0.811956 9.7511 0.894097 9.80581 0.975789 9.86022C1.14741 9.97451 1.31704 10.0875 1.38843 10.2503C1.48348 10.4672 1.41242 10.6304 1.371 10.7256L1.37099 10.7256L1.37094 10.7257C1.36646 10.736 1.36233 10.7455 1.3588 10.7541C1.21391 10.7179 0.986708 10.5599 0.937315 10.3491C0.921251 10.2748 0.919575 10.2186 0.918006 10.166C0.914429 10.046 0.911408 9.94463 0.739746 9.69057ZM1.86008 9.79439C1.93641 9.73325 2.01325 9.67171 2.07989 9.60507C1.93144 9.87227 1.93664 9.97316 1.94278 10.0923C1.94549 10.1449 1.94839 10.2011 1.9383 10.2768C1.90866 10.4908 1.69792 10.6686 1.55633 10.718C1.55243 10.7105 1.54796 10.7024 1.54312 10.6935C1.49475 10.605 1.40906 10.4483 1.48389 10.2208C1.53977 10.051 1.6988 9.92358 1.86008 9.79439ZM0.762787 10.8399C0.841602 10.8949 0.929976 10.9426 1.01769 10.9898C1.1975 11.0868 1.37455 11.1822 1.46086 11.3371C1.57336 11.5443 1.51818 11.7143 1.48675 11.8111C1.48322 11.822 1.47999 11.8319 1.47733 11.8409C1.32915 11.8178 1.08878 11.6795 1.02292 11.4754C0.998332 11.4016 0.990956 11.3454 0.984033 11.2926C0.968705 11.1757 0.955594 11.0758 0.762787 10.8399ZM1.88733 10.8432C1.95819 10.7757 2.02944 10.7077 2.08979 10.6357C1.96869 10.9145 1.98236 11.0141 1.99878 11.1337C2.00602 11.1864 2.01379 11.243 2.01077 11.3206C2.00089 11.5314 1.80332 11.7289 1.66831 11.7915C1.66329 11.7835 1.65746 11.7747 1.65108 11.765C1.59475 11.68 1.49652 11.5316 1.54977 11.3009C1.58998 11.1266 1.73781 10.9857 1.88733 10.8432ZM0.937266 11.999C1.02312 12.042 1.11702 12.0761 1.21008 12.11C1.40253 12.1801 1.59137 12.2488 1.69791 12.3909C1.84004 12.5804 1.80909 12.7566 1.79183 12.8548C1.7899 12.8658 1.78814 12.8758 1.78681 12.8848C1.63864 12.8815 1.3785 12.7794 1.28301 12.5884C1.24963 12.5206 1.23489 12.4672 1.22104 12.4169C1.18982 12.3036 1.1631 12.2066 0.937266 11.999ZM2.05198 11.838C2.11181 11.7612 2.17206 11.6839 2.22154 11.6039C2.14151 11.8989 2.16945 11.9954 2.20283 12.1106C2.21751 12.1613 2.23325 12.2156 2.2413 12.2921C2.26105 12.5061 2.09641 12.7268 1.97129 12.8091C1.96446 12.8007 1.9564 12.7915 1.94753 12.7814L1.9474 12.7813L1.94738 12.7813C1.87925 12.7037 1.76322 12.5715 1.7836 12.3415C1.79928 12.1623 1.92467 12.0014 2.05198 11.838ZM1.26995 13.1284C1.36 13.1559 1.45687 13.1743 1.55321 13.1925C1.7563 13.2309 1.95703 13.269 2.08657 13.3918C2.26056 13.5568 2.25691 13.7382 2.25488 13.8388C2.25468 13.8487 2.2545 13.8577 2.2545 13.8659C2.10632 13.889 1.83631 13.8297 1.71118 13.6552C1.6672 13.5932 1.64325 13.5425 1.62089 13.4951C1.56962 13.3865 1.52678 13.2958 1.26995 13.1284ZM2.34068 12.7914C2.38782 12.7049 2.43539 12.6175 2.4716 12.5291C2.43978 12.8314 2.48326 12.9235 2.53382 13.0305C2.55651 13.0786 2.58063 13.1297 2.60002 13.2041C2.65599 13.4116 2.53087 13.6552 2.41891 13.7573C2.41197 13.7514 2.40401 13.7449 2.39527 13.7378L2.39523 13.7378C2.31688 13.6741 2.17655 13.56 2.15878 13.326C2.14541 13.15 2.24208 12.9725 2.34068 12.7914ZM1.7276 14.2118C1.81943 14.2308 1.91701 14.24 2.01406 14.2492C2.21975 14.2685 2.42302 14.2877 2.56397 14.3995C2.74982 14.5441 2.76389 14.723 2.7719 14.825L2.7719 14.825L2.77191 14.825C2.77284 14.8368 2.77369 14.8476 2.77471 14.8572C2.62983 14.8934 2.35323 14.8605 2.21493 14.6992C2.16438 14.6405 2.13556 14.5915 2.10864 14.5457C2.04789 14.4424 1.99684 14.3556 1.7276 14.2118ZM2.76488 13.7737C2.80369 13.684 2.84272 13.5938 2.87021 13.5039C2.86564 13.81 2.91809 13.8958 2.98033 13.9977C3.00783 14.0427 3.03724 14.0909 3.06449 14.1625C3.13693 14.3634 3.03485 14.6235 2.93277 14.7321C2.92533 14.727 2.91691 14.7214 2.90773 14.7154L2.90767 14.7153C2.82332 14.6597 2.67469 14.5617 2.63313 14.3271C2.60183 14.1505 2.68284 13.9633 2.76488 13.7737ZM2.33006 15.2226C2.42384 15.2289 2.52199 15.2251 2.61946 15.2213C2.8266 15.2133 3.03064 15.2054 3.1829 15.295C3.38422 15.4134 3.42316 15.5877 3.44573 15.6887C3.44826 15.7001 3.45059 15.7105 3.45291 15.7198C3.31461 15.7757 3.03802 15.779 2.87667 15.6374C2.81875 15.5866 2.78404 15.5424 2.75153 15.501C2.67869 15.4082 2.61693 15.3296 2.33006 15.2226ZM3.29855 14.6563C3.32533 14.5607 3.35232 14.4643 3.36737 14.3697C3.40372 14.6718 3.46671 14.7514 3.54013 14.8442C3.57313 14.8858 3.60823 14.9302 3.64397 14.9986C3.74275 15.1863 3.67689 15.4563 3.59128 15.5781C3.58326 15.574 3.57424 15.5695 3.56442 15.5647C3.47342 15.5201 3.31357 15.4418 3.24224 15.2159C3.18902 15.0474 3.24333 14.8535 3.29855 14.6563ZM3.05792 16.1906C3.15431 16.182 3.25319 16.1612 3.35116 16.1406C3.55108 16.0986 3.74723 16.0574 3.91076 16.1215C4.12957 16.2072 4.19703 16.3726 4.23475 16.4651L4.23475 16.4651L4.23479 16.4652C4.23906 16.4757 4.24295 16.4852 4.24663 16.4936C4.11821 16.5693 3.84491 16.622 3.6638 16.5067C3.59849 16.4669 3.5569 16.4293 3.51775 16.394C3.4306 16.3152 3.35559 16.2474 3.05792 16.1906ZM3.91964 15.4629C3.92992 15.3666 3.94025 15.2696 3.94025 15.1764C4.0273 15.4719 4.1016 15.5379 4.19086 15.6172C4.22991 15.652 4.27183 15.6892 4.31893 15.7493C4.44735 15.9206 4.4243 16.1972 4.36174 16.3322C4.35232 16.329 4.34168 16.3258 4.33004 16.3223C4.23186 16.2926 4.0627 16.2415 3.95672 16.0325C3.8759 15.8731 3.89763 15.6693 3.91964 15.4629ZM3.88753 16.9874C3.9811 16.968 4.07606 16.9367 4.17037 16.9056C4.36482 16.8416 4.55646 16.7784 4.7272 16.8227C4.94894 16.8803 5.03468 17.0311 5.08574 17.1209C5.09307 17.1338 5.09968 17.1454 5.10588 17.1553C4.98734 17.2475 4.72062 17.3265 4.52963 17.2343C4.45803 17.2022 4.41128 17.1693 4.36712 17.1383C4.27117 17.071 4.18745 17.0122 3.88753 16.9874ZM4.65957 16.173C4.65912 16.0759 4.65867 15.9781 4.64817 15.8846C4.76831 16.1634 4.84944 16.2222 4.94421 16.2908C4.98709 16.3219 5.03276 16.355 5.08611 16.4114C5.23429 16.5662 5.24417 16.8428 5.19477 16.9844L5.17801 16.9815L5.1681 16.9798L5.16802 16.9798L5.16799 16.9798C5.06995 16.9638 4.89188 16.9348 4.76012 16.7341C4.66146 16.5839 4.66052 16.3802 4.65957 16.173ZM4.7438 17.666C4.83632 17.6391 4.92884 17.6003 5.02057 17.5618C5.20957 17.4824 5.39515 17.4045 5.57029 17.4355C5.80169 17.4766 5.8976 17.6244 5.95305 17.7098C5.95993 17.7205 5.9662 17.7301 5.97202 17.7385C5.86006 17.8373 5.60322 17.9393 5.40236 17.8636C5.33048 17.8363 5.28225 17.8071 5.23711 17.7797C5.13542 17.7182 5.04937 17.666 4.7438 17.666ZM5.45298 16.791V16.791C5.44491 16.6939 5.43677 16.5961 5.41885 16.5034C5.55746 16.7737 5.64432 16.8262 5.74652 16.8879C5.79242 16.9156 5.84143 16.9452 5.89961 16.9973C6.05766 17.1389 6.0873 17.4155 6.05108 17.5603C6.0398 17.5587 6.0269 17.5574 6.01265 17.556C5.91034 17.5455 5.73828 17.528 5.59667 17.343C5.48697 17.1997 5.47012 16.9971 5.45298 16.791ZM5.7646 18.2914C5.85251 18.2528 5.93902 18.2027 6.02482 18.153C6.20255 18.05 6.37721 17.9488 6.55488 17.9555C6.78608 17.9671 6.9006 18.0978 6.96746 18.1742C6.97678 18.1848 6.98517 18.1944 6.99282 18.2025C6.89404 18.3177 6.65366 18.4494 6.44292 18.4C6.36583 18.3834 6.31345 18.3608 6.26401 18.3394C6.15717 18.2933 6.06398 18.2531 5.7646 18.2914ZM6.35141 17.3299C6.331 17.2361 6.31044 17.1417 6.28138 17.0534C6.45783 17.3055 6.54975 17.3455 6.65926 17.3931C6.70711 17.4139 6.75832 17.4361 6.8214 17.4782C6.99921 17.5967 7.06507 17.8667 7.04531 18.0149C7.03521 18.0149 7.02385 18.0153 7.01138 18.0157H7.01132C6.90988 18.0188 6.73495 18.0243 6.56785 17.8602C6.43934 17.7339 6.39573 17.5335 6.35141 17.3299ZM6.85802 18.7755C6.93843 18.7229 7.01536 18.6592 7.09164 18.596C7.2496 18.4652 7.40479 18.3367 7.58244 18.3145C7.81021 18.2885 7.94458 18.3964 8.02532 18.4612L8.02535 18.4612C8.03681 18.4704 8.04719 18.4787 8.0566 18.4857C7.97757 18.6141 7.76025 18.7853 7.54951 18.7722C7.47086 18.7671 7.41503 18.7528 7.36284 18.7394C7.24678 18.7097 7.14876 18.6846 6.85802 18.7755ZM7.28165 17.7349C7.24529 17.6438 7.20866 17.552 7.16419 17.4684C7.37628 17.6827 7.47397 17.7084 7.58754 17.7383C7.63972 17.7521 7.69526 17.7667 7.76678 17.8009C7.96105 17.8898 8.06972 18.1467 8.0763 18.2948C8.0648 18.2965 8.05176 18.2989 8.03732 18.3016C7.93609 18.3203 7.76641 18.3517 7.57909 18.2191C7.43387 18.1163 7.35838 17.9272 7.28165 17.7349ZM8.20217 18.8728L8.20219 18.8728C8.34425 18.7224 8.48401 18.5745 8.65887 18.5319C8.88338 18.4765 9.03301 18.5709 9.11921 18.6252L9.11923 18.6252C9.13037 18.6323 9.14046 18.6386 9.1495 18.6439C9.08694 18.7822 8.89266 18.9765 8.67863 18.9896C8.60147 18.9937 8.54529 18.9862 8.4927 18.9791C8.37473 18.9633 8.27488 18.95 7.99702 19.0752C8.06848 19.0143 8.13558 18.9433 8.20217 18.8728ZM8.28658 17.9896C8.23958 17.9042 8.19231 17.8183 8.13866 17.7415C8.37626 17.9293 8.47702 17.943 8.59375 17.9588C8.64687 17.966 8.70331 17.9736 8.77746 17.9983C8.98162 18.0609 9.11992 18.3013 9.14626 18.4494C9.13655 18.4523 9.12569 18.4559 9.11376 18.4599C9.0165 18.492 8.84777 18.5477 8.64246 18.4363C8.4856 18.3511 8.38669 18.1714 8.28658 17.9896Z" fill="white"/>
</svg>
