<svg width="20" height="20" viewBox="0 0 20 20" fill="none" xmlns="http://www.w3.org/2000/svg">
<g clip-path="url(#clip0_4530_37218)">
<rect x="0.3125" y="0.3125" width="19.375" height="19.375" rx="4.6875" stroke="#E9ECEF" stroke-width="0.625"/>
<path fill-rule="evenodd" clip-rule="evenodd" d="M5.1849 8.3125V15H7.30991V8.3125H5.1849ZM5.05991 6.1875C5.05991 6.875 5.55991 7.375 6.24741 7.375C6.93491 7.375 7.43491 6.875 7.43491 6.1875C7.43491 5.5 6.93491 5 6.24741 5C5.62241 5 5.05991 5.5 5.05991 6.1875ZM12.9349 15H14.9349V10.875C14.9349 8.8125 13.6849 8.125 12.4974 8.125C11.4349 8.125 10.6849 8.8125 10.4974 9.25V8.3125H8.49741V15H10.6224V11.4375C10.6224 10.5 11.2474 10 11.8724 10C12.4974 10 12.9349 10.3125 12.9349 11.375V15Z" fill="#303030"/>
</g>
<defs>
<clipPath id="clip0_4530_37218">
<rect width="20" height="20" rx="5" fill="white"/>
</clipPath>
</defs>
</svg>
