<svg width="103" height="32" viewBox="0 0 103 32" fill="none" xmlns="http://www.w3.org/2000/svg">
<path d="M100.559 7.82545H102.137V16.9552H100.559V14.0858L97.5202 9.5601H97.4159V16.9552H95.8378V7.82545H98.3028L100.559 11.3991V7.82545Z" fill="white"/>
<path d="M88.0043 7.82545H94.3169V9.29925H91.9432V15.4814H94.3169V16.9552H88.0043V15.4814H90.365V9.29925H88.0043V7.82545Z" fill="white"/>
<path d="M82.7273 7.82545H86.2096V16.9552H84.6315V13.0555H82.023V16.9552H80.4709V10.1601L82.7273 7.82545ZM82.023 10.6165V11.5817H84.6315V9.29925H83.3011L82.023 10.6165Z" fill="white"/>
<path d="M72.3636 7.82545H73.9417V11.7643L74.6982 11.3469H76.3807L77.098 11.7643V7.82545H78.6761V16.9552H77.098V13.3554L76.7328 12.8077H74.1635L73.9417 13.0555V16.9552H72.3636V7.82545Z" fill="white"/>
<path d="M65.9388 7.82545H69.8515L70.908 9.41663L69.8646 10.5122L69.069 9.31229H66.5388L66.304 9.57314V14.9075L66.6822 15.4814H69.1864L70.1124 14.5554L70.9341 15.7813L69.8124 16.9552H65.8997L64.7259 15.2075V9.05144L65.9388 7.82545Z" fill="white"/>
<path d="M57.8054 7.82545H62.892V9.29925H58.4054L58.1706 9.5601V11.6078H61.1834V13.0816H58.1706V14.9075L58.5488 15.4814H62.892V16.9552H57.7663L56.5925 15.2075V9.06449L57.8054 7.82545Z" fill="white"/>
<path d="M53.6369 7.82545H55.2151V16.9552H53.6369V14.0858L50.598 9.5601H50.4937V16.9552H48.9156V7.82545H51.3806L53.6369 11.3991V7.82545Z" fill="white"/>
<path d="M42.3081 7.82546H46.2339L47.3816 9.57315V15.7031L46.1948 16.9552H42.282L41.0952 15.2075V9.07754L42.3081 7.82546ZM42.6733 14.9205L43.0516 15.4814H45.5557L45.8035 15.2205V9.86008L45.4253 9.29926H42.9081L42.6733 9.56011V14.9205Z" fill="white"/>
<path d="M88.2999 26.5134C87.9534 26.5134 87.6534 26.4333 87.4 26.2731C87.1503 26.1128 86.9584 25.8818 86.8243 25.5799C86.6901 25.2781 86.623 24.9185 86.623 24.5011C86.623 24.0838 86.6901 23.7242 86.8243 23.4223C86.9584 23.1205 87.1503 22.8895 87.4 22.7292C87.6534 22.569 87.9534 22.4889 88.2999 22.4889C88.6465 22.4889 88.9446 22.569 89.1943 22.7292C89.4476 22.8895 89.6414 23.1205 89.7756 23.4223C89.9097 23.7242 89.9768 24.0838 89.9768 24.5011C89.9768 24.9185 89.9097 25.2781 89.7756 25.5799C89.6414 25.8818 89.4476 26.1128 89.1943 26.2731C88.9446 26.4333 88.6465 26.5134 88.2999 26.5134ZM88.2999 26.0774C88.6651 26.0774 88.9483 25.9395 89.1495 25.6638C89.3508 25.388 89.4514 25.0005 89.4514 24.5011C89.4514 24.0018 89.3508 23.6143 89.1495 23.3385C88.9483 23.0628 88.6651 22.9249 88.2999 22.9249C87.9347 22.9249 87.6515 23.0628 87.4503 23.3385C87.2528 23.6143 87.154 24.0018 87.154 24.5011C87.154 25.0005 87.2528 25.388 87.4503 25.6638C87.6515 25.9395 87.9347 26.0774 88.2999 26.0774Z" fill="white"/>
<path d="M85.7364 26.4519C85.6357 26.4519 85.55 26.4184 85.4792 26.3513C85.4084 26.2805 85.373 26.2004 85.373 26.1109C85.373 26.0103 85.4084 25.9265 85.4792 25.8594C85.55 25.7886 85.6357 25.7532 85.7364 25.7532C85.837 25.7532 85.9227 25.7886 85.9935 25.8594C86.0643 25.9302 86.0997 26.0141 86.0997 26.1109C86.0997 26.2004 86.0643 26.2805 85.9935 26.3513C85.9227 26.4184 85.837 26.4519 85.7364 26.4519Z" fill="white"/>
<path d="M83.292 26.5134C82.9865 26.5134 82.7014 26.4575 82.4368 26.3457C82.1723 26.2302 81.9524 26.0662 81.7773 25.8538C81.7325 25.7979 81.7102 25.7402 81.7102 25.6806C81.7102 25.606 81.7456 25.5445 81.8164 25.4961C81.8648 25.4663 81.9096 25.4514 81.9505 25.4514C82.0325 25.4514 82.1033 25.4905 82.1629 25.5688C82.2896 25.729 82.4517 25.8538 82.6492 25.9433C82.8467 26.0327 83.061 26.0774 83.292 26.0774C83.6162 26.0774 83.8696 26.0159 84.0522 25.893C84.2348 25.77 84.3261 25.5967 84.3261 25.3731C84.3261 24.8738 84.0765 24.6241 83.5771 24.6241H82.9567C82.871 24.6241 82.8039 24.6055 82.7554 24.5682C82.7107 24.531 82.6884 24.4788 82.6884 24.4117C82.6884 24.2664 82.7778 24.1937 82.9567 24.1937H83.5771C83.7746 24.1937 83.933 24.1378 84.0522 24.026C84.1715 23.9142 84.2311 23.7652 84.2311 23.5789C84.2311 23.3702 84.151 23.2099 83.9908 23.0982C83.8305 22.9826 83.6013 22.9249 83.3032 22.9249C82.8747 22.9249 82.5337 23.0702 82.2803 23.3609C82.2207 23.4317 82.1536 23.4671 82.0791 23.4671C82.0269 23.4671 81.9785 23.4503 81.9338 23.4168C81.8667 23.372 81.8332 23.3106 81.8332 23.2323C81.8332 23.169 81.8574 23.1131 81.9058 23.0646C82.081 22.8783 82.2878 22.7367 82.5263 22.6398C82.7685 22.5392 83.0275 22.4889 83.3032 22.4889C83.6013 22.4889 83.8585 22.5336 84.0746 22.623C84.2945 22.7125 84.4621 22.841 84.5777 23.0087C84.6969 23.1727 84.7565 23.3627 84.7565 23.5789C84.7565 23.7465 84.7081 23.8993 84.6112 24.0372C84.518 24.1751 84.3783 24.2925 84.192 24.3894V24.4005C84.4156 24.4974 84.5814 24.626 84.6895 24.7862C84.7975 24.9427 84.8516 25.1384 84.8516 25.3731C84.8516 25.6079 84.7882 25.811 84.6615 25.9824C84.5348 26.1538 84.3541 26.2861 84.1193 26.3793C83.8845 26.4687 83.6088 26.5134 83.292 26.5134Z" fill="white"/>
<path d="M77.9997 26.5134C77.9177 26.5134 77.8543 26.491 77.8096 26.4463C77.7649 26.3979 77.7425 26.3327 77.7425 26.2507V22.9696H76.5296C76.4476 22.9696 76.3824 22.9528 76.334 22.9193C76.2892 22.882 76.2669 22.8298 76.2669 22.7628C76.2669 22.6174 76.3544 22.5448 76.5296 22.5448H79.4865C79.5685 22.5448 79.6318 22.5634 79.6765 22.6007C79.7213 22.6379 79.7436 22.692 79.7436 22.7628C79.7436 22.8261 79.7213 22.8764 79.6765 22.9137C79.6318 22.951 79.5685 22.9696 79.4865 22.9696H78.2735V26.2507C78.2735 26.3327 78.2493 26.3979 78.2009 26.4463C78.1524 26.491 78.0854 26.5134 77.9997 26.5134Z" fill="white"/>
<path d="M73.6639 26.4575C73.4217 26.4575 73.2317 26.3923 73.0938 26.2619C72.9559 26.1314 72.887 25.9507 72.887 25.7197V23.2658C72.887 23.0423 72.9541 22.8671 73.0882 22.7404C73.2224 22.61 73.4087 22.5448 73.6472 22.5448H75.38C75.5551 22.5448 75.6427 22.6174 75.6427 22.7628C75.6427 22.8261 75.6185 22.8764 75.57 22.9137C75.5253 22.951 75.4619 22.9696 75.38 22.9696H73.6919C73.6062 22.9696 73.5373 22.9975 73.4851 23.0534C73.4366 23.1093 73.4124 23.1839 73.4124 23.277V24.244H74.9551C75.1303 24.244 75.2179 24.3167 75.2179 24.462C75.2179 24.5291 75.1936 24.5813 75.1452 24.6185C75.1005 24.6558 75.0371 24.6744 74.9551 24.6744H73.4124V25.7253C73.4124 25.8184 73.4366 25.893 73.4851 25.9489C73.5373 26.0048 73.6062 26.0327 73.6919 26.0327H75.5029C75.5886 26.0327 75.6539 26.0513 75.6986 26.0886C75.7433 26.1221 75.7656 26.1743 75.7656 26.2451C75.7656 26.3122 75.7414 26.3643 75.693 26.4016C75.6483 26.4389 75.5849 26.4575 75.5029 26.4575H73.6639Z" fill="white"/>
<path d="M70.094 26.4575C69.8518 26.4575 69.6618 26.3923 69.5239 26.2619C69.386 26.1314 69.3171 25.9507 69.3171 25.7197V23.2658C69.3171 23.0423 69.3842 22.8671 69.5183 22.7404C69.6525 22.61 69.8388 22.5448 70.0773 22.5448H71.81C71.9852 22.5448 72.0728 22.6174 72.0728 22.7628C72.0728 22.8261 72.0485 22.8764 72.0001 22.9137C71.9554 22.951 71.892 22.9696 71.81 22.9696H70.122C70.0363 22.9696 69.9673 22.9975 69.9152 23.0534C69.8667 23.1093 69.8425 23.1839 69.8425 23.277V24.244H71.3852C71.5604 24.244 71.6479 24.3167 71.6479 24.462C71.6479 24.5291 71.6237 24.5813 71.5753 24.6185C71.5306 24.6558 71.4672 24.6744 71.3852 24.6744H69.8425V25.7253C69.8425 25.8184 69.8667 25.893 69.9152 25.9489C69.9673 26.0048 70.0363 26.0327 70.122 26.0327H71.933C72.0187 26.0327 72.0839 26.0513 72.1287 26.0886C72.1734 26.1221 72.1957 26.1743 72.1957 26.2451C72.1957 26.3122 72.1715 26.3643 72.1231 26.4016C72.0783 26.4389 72.015 26.4575 71.933 26.4575H70.094Z" fill="white"/>
<path d="M65.2609 23.2882C65.2609 23.0609 65.328 22.8802 65.4621 22.746C65.5963 22.6119 65.7882 22.5448 66.0379 22.5448H67.0664C68.1135 22.5448 68.6371 22.9696 68.6371 23.8192C68.6371 24.2217 68.5159 24.531 68.2737 24.7471C68.0315 24.9595 67.6794 25.0657 67.2173 25.0657L68.2234 26.0942C68.2644 26.1352 68.2849 26.1892 68.2849 26.2563C68.2849 26.3308 68.2551 26.3923 68.1955 26.4407C68.1396 26.4855 68.0818 26.5078 68.0222 26.5078C67.9328 26.5078 67.8526 26.4668 67.7818 26.3848L66.5186 25.0713H65.8255V26.2395C65.8255 26.3252 65.7994 26.3923 65.7472 26.4407C65.695 26.4892 65.6261 26.5134 65.5404 26.5134C65.4547 26.5134 65.3858 26.4892 65.3336 26.4407C65.2851 26.3923 65.2609 26.3252 65.2609 26.2395V23.2882ZM67.0776 24.6241C67.4241 24.6241 67.6756 24.5626 67.8321 24.4397C67.9887 24.3167 68.0669 24.1099 68.0669 23.8192C68.0669 23.5248 67.9849 23.3143 67.821 23.1876C67.6607 23.0572 67.4129 22.9919 67.0776 22.9919H66.0994C66.0174 22.9919 65.9503 23.0199 65.8981 23.0758C65.8497 23.128 65.8255 23.2006 65.8255 23.2938V24.6241H67.0776Z" fill="white"/>
<path d="M62.9175 26.5134C62.8356 26.5134 62.7722 26.491 62.7275 26.4463C62.6828 26.3979 62.6604 26.3327 62.6604 26.2507V22.9696H61.4475C61.3655 22.9696 61.3003 22.9528 61.2518 22.9193C61.2071 22.882 61.1848 22.8298 61.1848 22.7628C61.1848 22.6174 61.2723 22.5448 61.4475 22.5448H64.4044C64.4864 22.5448 64.5497 22.5634 64.5944 22.6007C64.6391 22.6379 64.6615 22.692 64.6615 22.7628C64.6615 22.8261 64.6391 22.8764 64.5944 22.9137C64.5497 22.951 64.4864 22.9696 64.4044 22.9696H63.1914V26.2507C63.1914 26.3327 63.1672 26.3979 63.1188 26.4463C63.0703 26.491 63.0032 26.5134 62.9175 26.5134Z" fill="white"/>
<path d="M59.3403 26.5134C58.9788 26.5134 58.6434 26.4538 58.3341 26.3345C58.0286 26.2116 57.7807 26.042 57.5907 25.8259C57.5534 25.7774 57.5348 25.7309 57.5348 25.6861C57.5348 25.6153 57.5665 25.5539 57.6298 25.5017C57.6708 25.4681 57.7137 25.4514 57.7584 25.4514C57.8255 25.4514 57.8944 25.4868 57.9652 25.5576C58.1254 25.7215 58.3229 25.8501 58.5577 25.9433C58.7962 26.0327 59.057 26.0774 59.3403 26.0774C59.6384 26.0774 59.8694 26.0234 60.0334 25.9153C60.2011 25.8035 60.2849 25.6489 60.2849 25.4514C60.2849 25.2688 60.2029 25.1216 60.039 25.0098C59.875 24.8943 59.5936 24.7937 59.1949 24.708C58.6471 24.585 58.2521 24.4303 58.0099 24.244C57.7677 24.0577 57.6466 23.8118 57.6466 23.5062C57.6466 23.3012 57.7081 23.1224 57.8311 22.9696C57.954 22.8168 58.1292 22.6994 58.3565 22.6174C58.5838 22.5317 58.8484 22.4889 59.1502 22.4889C59.493 22.4889 59.8005 22.5485 60.0725 22.6678C60.3445 22.7833 60.542 22.9416 60.665 23.1429C60.6948 23.1876 60.7097 23.2342 60.7097 23.2826C60.7097 23.3571 60.6743 23.4186 60.6035 23.4671C60.57 23.4894 60.5308 23.5006 60.4861 23.5006C60.4451 23.5006 60.4041 23.4913 60.3632 23.4727C60.3222 23.4503 60.2886 23.4223 60.2625 23.3888C60.1545 23.2398 60.0036 23.1261 59.8098 23.0478C59.6197 22.9659 59.3999 22.9249 59.1502 22.9249C58.8335 22.9249 58.5912 22.9752 58.4236 23.0758C58.2596 23.1727 58.1776 23.3161 58.1776 23.5062C58.1776 23.6217 58.2112 23.7223 58.2782 23.808C58.3453 23.89 58.4552 23.9645 58.608 24.0316C58.7608 24.095 58.9713 24.1583 59.2396 24.2217C59.8023 24.3521 60.2066 24.5142 60.4526 24.708C60.6985 24.898 60.8215 25.1458 60.8215 25.4514C60.8215 25.6675 60.76 25.8557 60.637 26.0159C60.5178 26.1724 60.3464 26.2954 60.1228 26.3848C59.8992 26.4706 59.6384 26.5134 59.3403 26.5134Z" fill="white"/>
<path d="M54.9085 26.4575C54.6588 26.4575 54.465 26.3923 54.3271 26.2619C54.193 26.1315 54.1259 25.9507 54.1259 25.7197V22.7516C54.1259 22.6696 54.1483 22.6063 54.193 22.5615C54.2414 22.5131 54.3066 22.4889 54.3886 22.4889C54.4706 22.4889 54.5358 22.5131 54.5843 22.5615C54.6327 22.6063 54.6569 22.6696 54.6569 22.7516V25.7253C54.6569 25.8184 54.6812 25.893 54.7296 25.9489C54.778 26.0048 54.8451 26.0327 54.9308 26.0327H56.7698C56.9449 26.0327 57.0325 26.1035 57.0325 26.2451C57.0325 26.3122 57.0083 26.3644 56.9599 26.4016C56.9151 26.4389 56.8518 26.4575 56.7698 26.4575H54.9085Z" fill="white"/>
<path d="M51.3822 26.4575C51.1325 26.4575 50.9387 26.3923 50.8009 26.2619C50.6667 26.1315 50.5996 25.9507 50.5996 25.7197V22.7516C50.5996 22.6696 50.622 22.6063 50.6667 22.5615C50.7152 22.5131 50.7804 22.4889 50.8624 22.4889C50.9443 22.4889 51.0095 22.5131 51.058 22.5615C51.1064 22.6063 51.1307 22.6696 51.1307 22.7516V25.7253C51.1307 25.8184 51.1549 25.893 51.2033 25.9489C51.2518 26.0048 51.3188 26.0327 51.4045 26.0327H53.2435C53.4187 26.0327 53.5062 26.1035 53.5062 26.2451C53.5062 26.3122 53.482 26.3644 53.4336 26.4016C53.3889 26.4389 53.3255 26.4575 53.2435 26.4575H51.3822Z" fill="white"/>
<path d="M46.7567 26.5134C46.6747 26.5134 46.6095 26.491 46.561 26.4463C46.5163 26.3979 46.494 26.3327 46.494 26.2507V24.1434C46.494 23.6254 46.6412 23.2211 46.9356 22.9305C47.2299 22.6361 47.6361 22.4889 48.1541 22.4889C48.4969 22.4889 48.7932 22.556 49.0428 22.6901C49.2962 22.8205 49.4881 23.0106 49.6186 23.2603C49.7527 23.5099 49.8198 23.8043 49.8198 24.1434V26.2507C49.8198 26.3327 49.7956 26.3979 49.7471 26.4463C49.6987 26.491 49.6335 26.5134 49.5515 26.5134C49.4732 26.5134 49.4099 26.491 49.3614 26.4463C49.313 26.3979 49.2888 26.3327 49.2888 26.2507V25.1104H47.0194V26.2507C47.0194 26.3327 46.9952 26.3979 46.9467 26.4463C46.902 26.491 46.8387 26.5134 46.7567 26.5134ZM49.2888 24.6856V24.1266C49.2888 23.7391 49.1919 23.4428 48.9981 23.2379C48.8043 23.0292 48.523 22.9249 48.1541 22.9249C47.7852 22.9249 47.5038 23.0274 47.3101 23.2323C47.1163 23.4335 47.0194 23.7316 47.0194 24.1266V24.6856H49.2888Z" fill="white"/>
<path d="M42.4218 26.5134C42.2466 26.5134 42.105 26.4575 41.997 26.3457C41.8926 26.2339 41.8181 26.0588 41.7734 25.8203L41.1809 22.7795C41.1734 22.7423 41.1697 22.7143 41.1697 22.6957C41.1697 22.6286 41.1902 22.5783 41.2312 22.5448C41.2759 22.5075 41.3374 22.4889 41.4157 22.4889C41.5051 22.4889 41.5703 22.5094 41.6113 22.5504C41.656 22.5876 41.6858 22.6454 41.7007 22.7236L42.2709 25.8482C42.2895 25.9377 42.31 25.9992 42.3323 26.0327C42.3547 26.0625 42.3882 26.0774 42.433 26.0774C42.4814 26.0774 42.5168 26.0606 42.5392 26.0271C42.5652 25.9898 42.5839 25.9321 42.5951 25.8538L43.0087 23.0423C43.0348 22.8634 43.0944 22.7274 43.1876 22.6342C43.2807 22.5373 43.4037 22.4889 43.5565 22.4889C43.7093 22.4889 43.8304 22.5373 43.9198 22.6342C44.013 22.7311 44.0726 22.8671 44.0987 23.0423L44.5067 25.8538C44.5179 25.9321 44.5365 25.9898 44.5626 26.0271C44.5887 26.0606 44.6241 26.0774 44.6688 26.0774C44.7135 26.0774 44.7471 26.0606 44.7694 26.0271C44.7955 25.9936 44.816 25.934 44.8309 25.8482L45.4066 22.7236C45.4215 22.6454 45.4514 22.5876 45.4961 22.5504C45.5408 22.5094 45.606 22.4889 45.6917 22.4889C45.8519 22.4889 45.9321 22.5578 45.9321 22.6957C45.9321 22.7143 45.9283 22.7423 45.9209 22.7795L45.334 25.8203C45.2855 26.0513 45.2091 26.2246 45.1048 26.3401C45.0042 26.4556 44.8626 26.5134 44.68 26.5134C44.5048 26.5134 44.367 26.4575 44.2664 26.3457C44.1695 26.2339 44.1024 26.0606 44.0651 25.8259L43.6683 23.1093C43.6571 23.0423 43.6422 22.9957 43.6236 22.9696C43.6086 22.9398 43.5863 22.9249 43.5565 22.9249C43.5229 22.9249 43.4969 22.9398 43.4782 22.9696C43.4633 22.9957 43.4503 23.0423 43.4391 23.1093L43.0366 25.8259C43.0031 26.0606 42.936 26.2339 42.8354 26.3457C42.7348 26.4575 42.5969 26.5134 42.4218 26.5134Z" fill="white"/>
<path d="M24.7737 9.26002C16.1118 -1.33207 6.61025 3.70898 2.94225 7.55352C3.29532 5.84702 10.3567 -1.44977 17.5358 0.256736C24.7149 1.96324 27.6864 7.27436 28.069 11.3196C28.481 15.6741 26.4802 20.5732 22.4788 21.9705C19.513 23.0062 17.0847 21.8528 16.2412 21.1467C21.6549 21.4762 23.6361 18.3025 23.9499 16.6745C23.4347 18.2938 21.9988 19.3472 20.9187 19.8799C20.5369 20.0681 20.125 19.7722 20.125 19.3466C20.125 19.1143 20.255 18.9022 20.4538 18.7821C24.5683 16.2968 24.0071 11.0822 23.1849 8.73041C27.3276 15.0386 23.6557 19.8717 21.3019 21.4998C22.6553 21.1075 25.5269 19.2048 26.186 14.7326C26.8451 5.92939 20.1838 2.86553 16.7708 2.434C21.6196 3.75213 24.1264 7.5339 24.7737 9.26002Z" fill="white"/>
<path d="M9.77218 7.29431C-1.0212 15.7041 3.79443 25.3219 7.55141 29.0795C5.85371 28.6863 -1.27456 21.4548 0.600739 14.318C2.47603 7.1811 7.85574 4.33565 11.9089 4.04847C16.2719 3.73934 21.1224 5.85502 22.425 9.88831C23.3905 12.8777 22.1802 15.2782 21.4544 16.1047C21.9114 10.7003 18.7853 8.64487 17.1651 8.29273C18.7718 8.84599 19.7911 10.3063 20.2982 11.3987C20.4774 11.7848 20.1718 12.1896 19.7463 12.1796C19.5141 12.1741 19.3051 12.0391 19.1898 11.8376C16.8022 7.66557 11.5758 8.10371 9.20525 8.8702C15.6093 4.8774 20.3546 8.66226 21.9267 11.0538C21.5664 9.69148 19.732 6.77578 15.2765 6.01146C6.49131 5.14502 3.27124 11.7322 2.75936 15.1341C4.19144 10.3177 8.03127 7.90073 9.77218 7.29431Z" fill="white"/>
<path d="M7.59227 22.7086C16.3547 33.2177 25.8078 28.0864 29.439 24.2072C29.1022 25.9169 22.1106 33.2806 14.9156 31.6425C7.72058 30.0045 4.69865 24.7219 4.2775 20.6805C3.82415 16.33 5.77815 11.4122 9.76612 9.9768C12.7219 8.91294 15.1611 10.0431 16.0112 10.7412C10.5946 10.4632 8.6438 13.6557 8.34548 15.2866C8.84526 13.6625 10.271 12.5954 11.3461 12.0525C11.726 11.8606 12.1407 12.1526 12.1448 12.5782C12.147 12.8105 12.019 13.0238 11.8214 13.1458C7.73067 15.6701 8.34153 20.8792 9.18605 23.223C4.98351 16.9546 8.60925 12.0867 10.9474 10.4363C9.59781 10.8415 6.74442 12.7714 6.12796 17.2497C5.55273 26.0588 12.2428 29.0591 15.6598 29.4581C10.7987 28.1862 8.25597 24.4284 7.59227 22.7086Z" fill="white"/>
<path d="M22.9132 24.2321C33.561 15.6386 28.5814 6.10478 24.7606 2.41204C26.4648 2.77612 33.7158 9.88446 31.963 17.0524C30.2102 24.2203 24.8801 27.1575 20.8324 27.514C16.4753 27.8978 11.5893 25.8655 10.2178 21.8551C9.2013 18.8827 10.3703 16.4619 11.0819 15.623C10.7174 21.0345 13.8783 23.036 15.5043 23.3604C13.8883 22.8347 12.8441 21.3921 12.3185 20.3085C12.1327 19.9256 12.4313 19.5156 12.8569 19.5183C13.0891 19.5198 13.3004 19.6512 13.4192 19.8508C15.8779 23.9812 21.096 23.4537 23.4531 22.6467C17.1183 26.7486 12.309 23.0455 10.6962 20.6813C11.0797 22.0372 12.9638 24.9211 17.4317 25.609C26.2304 26.3248 29.3372 19.6835 29.7908 16.2734C28.4414 21.1136 24.6435 23.5959 22.9132 24.2321Z" fill="white"/>
</svg>
