<svg width="140" height="32" viewBox="0 0 140 32" fill="none" xmlns="http://www.w3.org/2000/svg">
<path d="M24.7737 9.26C16.1118 -1.33209 6.61025 3.70896 2.94225 7.5535C3.29532 5.84699 10.3567 -1.44979 17.5358 0.256713C24.7149 1.96322 27.6864 7.27434 28.069 11.3196C28.481 15.6741 26.4802 20.5732 22.4788 21.9705C19.513 23.0062 17.0847 21.8528 16.2412 21.1467C21.6549 21.4762 23.6361 18.3025 23.9499 16.6745C23.4347 18.2937 21.9988 19.3472 20.9187 19.8798C20.5369 20.0681 20.125 19.7722 20.125 19.3465C20.125 19.1143 20.255 18.9022 20.4538 18.7821C24.5683 16.2968 24.0071 11.0822 23.1849 8.73038C27.3276 15.0386 23.6557 19.8717 21.3019 21.4997C22.6553 21.1074 25.5269 19.2048 26.186 14.7326C26.8451 5.92937 20.1838 2.86551 16.7708 2.43398C21.6196 3.7521 24.1264 7.53388 24.7737 9.26Z" fill="#214FF6"/>
<path d="M9.77217 7.29429C-1.02121 15.7041 3.79442 25.3218 7.5514 29.0795C5.8537 28.6863 -1.27456 21.4548 0.600732 14.3179C2.47603 7.18108 7.85573 4.33562 11.9089 4.04845C16.2719 3.73932 21.1224 5.855 22.425 9.88829C23.3905 12.8777 22.1802 15.2781 21.4544 16.1047C21.9114 10.7002 18.7853 8.64484 17.1651 8.29271C18.7718 8.84597 19.7911 10.3063 20.2982 11.3987C20.4774 11.7848 20.1718 12.1896 19.7463 12.1796C19.5141 12.1741 19.3051 12.0391 19.1898 11.8375C16.8022 7.66555 11.5758 8.10368 9.20524 8.87018C15.6093 4.87738 20.3546 8.66224 21.9266 11.0538C21.5664 9.69146 19.7319 6.77576 15.2765 6.01144C6.4913 5.145 3.27123 11.7322 2.75935 15.134C4.19144 10.3176 8.03126 7.90071 9.77217 7.29429Z" fill="#214FF6"/>
<path d="M7.59227 22.7085C16.3547 33.2177 25.8078 28.0864 29.439 24.2071C29.1022 25.9169 22.1106 33.2806 14.9156 31.6425C7.72058 30.0044 4.69865 24.7218 4.2775 20.6804C3.82415 16.33 5.77815 11.4121 9.76612 9.97674C12.7219 8.91288 15.1611 10.0431 16.0112 10.7411C10.5946 10.4632 8.6438 13.6556 8.34548 15.2865C8.84526 13.6624 10.271 12.5953 11.3461 12.0524C11.726 11.8606 12.1407 12.1525 12.1448 12.5782C12.147 12.8104 12.019 13.0238 11.8214 13.1457C7.73067 15.6701 8.34153 20.8791 9.18605 23.223C4.98351 16.9545 8.60925 12.0866 10.9474 10.4363C9.59781 10.8414 6.74442 12.7713 6.12796 17.2496C5.55273 26.0587 12.2428 29.059 15.6598 29.458C10.7987 28.1861 8.25597 24.4284 7.59227 22.7085Z" fill="#214FF6"/>
<path d="M22.9132 24.2321C33.561 15.6386 28.5814 6.1048 24.7606 2.41207C26.4648 2.77614 33.7158 9.88448 31.963 17.0524C30.2102 24.2203 24.88 27.1575 20.8324 27.514C16.4753 27.8978 11.5893 25.8655 10.2178 21.8551C9.20129 18.8827 10.3703 16.4619 11.0819 15.623C10.7174 21.0345 13.8783 23.0361 15.5042 23.3604C13.8883 22.8347 12.8441 21.3921 12.3185 20.3086C12.1327 19.9256 12.4312 19.5156 12.8569 19.5183C13.0891 19.5198 13.3004 19.6512 13.4192 19.8508C15.8779 23.9813 21.096 23.4537 23.4531 22.6467C17.1183 26.7486 12.309 23.0456 10.6961 20.6813C11.0797 22.0372 12.9638 24.9211 17.4316 25.609C26.2304 26.3249 29.3372 19.6835 29.7907 16.2734C28.4414 21.1136 24.6435 23.5959 22.9132 24.2321Z" fill="#214FF6"/>
<path d="M39.022 21C38.9474 21 38.91 20.958 38.91 20.874V11.956C38.91 11.872 38.9474 11.83 39.022 11.83H40.758C41.6727 11.83 42.354 12.0633 42.802 12.53C43.25 12.9967 43.474 13.706 43.474 14.658C43.474 15.5727 43.25 16.2727 42.802 16.758C42.354 17.2433 41.6867 17.486 40.8 17.486H39.918V20.874C39.918 20.958 39.8807 21 39.806 21H39.022ZM39.918 16.562H40.744C41.3507 16.562 41.7894 16.4127 42.06 16.114C42.3307 15.806 42.466 15.3347 42.466 14.7C42.466 14.0093 42.326 13.51 42.046 13.202C41.7754 12.894 41.3507 12.74 40.772 12.74H39.918V16.562ZM46.8043 21.112C46.0669 21.112 45.5069 20.9113 45.1243 20.51C44.7509 20.0993 44.5643 19.4833 44.5643 18.662V16.534C44.5643 15.7033 44.7509 15.0873 45.1243 14.686C45.4976 14.2753 46.0576 14.07 46.8043 14.07C47.5509 14.07 48.1109 14.2753 48.4843 14.686C48.8576 15.0873 49.0443 15.7033 49.0443 16.534V18.662C49.0443 19.4833 48.8576 20.0993 48.4843 20.51C48.1109 20.9113 47.5509 21.112 46.8043 21.112ZM46.8043 20.174C47.2429 20.174 47.5556 20.048 47.7423 19.796C47.9383 19.544 48.0363 19.1473 48.0363 18.606V16.59C48.0363 16.0393 47.9383 15.638 47.7423 15.386C47.5556 15.134 47.2429 15.008 46.8043 15.008C46.3749 15.008 46.0623 15.134 45.8663 15.386C45.6703 15.638 45.5723 16.0393 45.5723 16.59V18.606C45.5723 19.1473 45.6703 19.544 45.8663 19.796C46.0623 20.048 46.3749 20.174 46.8043 20.174ZM51.6501 21C51.5848 21 51.5428 20.9627 51.5241 20.888L49.9841 14.322C49.9655 14.2287 49.9935 14.182 50.0681 14.182H50.8941C50.9688 14.182 51.0108 14.224 51.0201 14.308L51.8601 18.172C51.9255 18.4707 51.9861 18.7787 52.0421 19.096C52.0981 19.404 52.1495 19.7073 52.1961 20.006H52.2381C52.3035 19.7073 52.3688 19.4087 52.4341 19.11C52.4995 18.802 52.5648 18.5033 52.6301 18.214L53.1901 15.862L52.8821 14.462C52.8541 14.3593 52.8821 14.308 52.9661 14.308H53.7361C53.7921 14.308 53.8295 14.3453 53.8481 14.42L54.6181 18.214C54.6835 18.5127 54.7395 18.8113 54.7861 19.11C54.8421 19.4087 54.8888 19.7073 54.9261 20.006H54.9681C55.0241 19.7073 55.0801 19.404 55.1361 19.096C55.1921 18.7787 55.2528 18.4707 55.3181 18.172L56.1581 14.308C56.1768 14.224 56.2141 14.182 56.2701 14.182H57.0961C57.1801 14.182 57.2128 14.2287 57.1941 14.322L55.6541 20.888C55.6261 20.9627 55.5795 21 55.5141 21H54.4501C54.3848 21 54.3381 20.9673 54.3101 20.902L53.9741 19.32C53.9088 19.0213 53.8481 18.7133 53.7921 18.396C53.7361 18.0787 53.6801 17.7193 53.6241 17.318H53.5821C53.5168 17.7193 53.4515 18.0787 53.3861 18.396C53.3301 18.7133 53.2695 19.0213 53.2041 19.32L52.8541 20.902C52.8261 20.9673 52.7841 21 52.7281 21H51.6501ZM60.3251 21.112C59.5971 21.112 59.0464 20.9113 58.6731 20.51C58.2998 20.0993 58.1131 19.4833 58.1131 18.662V16.492C58.1131 15.6707 58.2951 15.064 58.6591 14.672C59.0324 14.2707 59.5738 14.07 60.2831 14.07C60.9924 14.07 61.5291 14.2707 61.8931 14.672C62.2571 15.0733 62.4391 15.666 62.4391 16.45V17.71C62.4391 17.794 62.4064 17.836 62.3411 17.836H59.1211V18.536C59.1211 19.1147 59.2191 19.5347 59.4151 19.796C59.6111 20.048 59.9238 20.174 60.3531 20.174C60.6984 20.174 60.9551 20.0993 61.1231 19.95C61.3004 19.7913 61.3798 19.5673 61.3611 19.278C61.3611 19.1753 61.3984 19.124 61.4731 19.124H62.2431C62.2991 19.124 62.3364 19.166 62.3551 19.25C62.3738 19.838 62.2058 20.2953 61.8511 20.622C61.4964 20.9487 60.9878 21.112 60.3251 21.112ZM59.1211 16.926H61.4311V16.506C61.4311 15.9833 61.3378 15.6053 61.1511 15.372C60.9738 15.1293 60.6891 15.008 60.2971 15.008C59.8958 15.008 59.5971 15.1293 59.4011 15.372C59.2144 15.6147 59.1211 15.9927 59.1211 16.506V16.926ZM63.9979 21C63.9233 21 63.8859 20.958 63.8859 20.874V15.862C63.8859 15.5073 63.8813 15.2087 63.8719 14.966C63.8626 14.7233 63.8486 14.5133 63.8299 14.336C63.8113 14.2333 63.8439 14.182 63.9279 14.182H64.6419C64.7073 14.182 64.7446 14.224 64.7539 14.308C64.7819 14.4947 64.8053 14.714 64.8239 14.966C64.8426 15.218 64.8519 15.4233 64.8519 15.582L64.8939 15.89V20.874C64.8939 20.958 64.8566 21 64.7819 21H63.9979ZM64.7819 16.282L64.7539 15.316C64.8939 15.1013 65.0573 14.9007 65.2439 14.714C65.4306 14.518 65.6266 14.364 65.8319 14.252C66.0466 14.1307 66.2613 14.07 66.4759 14.07C66.5413 14.07 66.5926 14.07 66.6299 14.07C66.6766 14.07 66.7186 14.0793 66.7559 14.098C66.7933 14.1073 66.8166 14.126 66.8259 14.154C66.8446 14.1727 66.8539 14.2053 66.8539 14.252C66.8633 14.4293 66.8633 14.602 66.8539 14.77C66.8539 14.9287 66.8446 15.0873 66.8259 15.246C66.8166 15.3207 66.7699 15.3533 66.6859 15.344C66.6299 15.3253 66.5693 15.316 66.5039 15.316C66.4479 15.3067 66.3826 15.302 66.3079 15.302C66.1399 15.302 65.9626 15.344 65.7759 15.428C65.5986 15.5027 65.4213 15.6147 65.2439 15.764C65.0759 15.904 64.9219 16.0767 64.7819 16.282ZM69.7587 21.112C69.0307 21.112 68.48 20.9113 68.1067 20.51C67.7334 20.0993 67.5467 19.4833 67.5467 18.662V16.492C67.5467 15.6707 67.7287 15.064 68.0927 14.672C68.466 14.2707 69.0074 14.07 69.7167 14.07C70.426 14.07 70.9627 14.2707 71.3267 14.672C71.6907 15.0733 71.8727 15.666 71.8727 16.45V17.71C71.8727 17.794 71.84 17.836 71.7747 17.836H68.5547V18.536C68.5547 19.1147 68.6527 19.5347 68.8487 19.796C69.0447 20.048 69.3574 20.174 69.7867 20.174C70.132 20.174 70.3887 20.0993 70.5567 19.95C70.734 19.7913 70.8134 19.5673 70.7947 19.278C70.7947 19.1753 70.832 19.124 70.9067 19.124H71.6767C71.7327 19.124 71.77 19.166 71.7887 19.25C71.8074 19.838 71.6394 20.2953 71.2847 20.622C70.93 20.9487 70.4214 21.112 69.7587 21.112ZM68.5547 16.926H70.8647V16.506C70.8647 15.9833 70.7714 15.6053 70.5847 15.372C70.4074 15.1293 70.1227 15.008 69.7307 15.008C69.3294 15.008 69.0307 15.1293 68.8347 15.372C68.648 15.6147 68.5547 15.9927 68.5547 16.506V16.926ZM74.7475 21.112C74.2435 21.112 73.8608 20.9393 73.5995 20.594C73.3382 20.2393 73.2075 19.7167 73.2075 19.026V16.366C73.2075 15.6193 73.3755 15.05 73.7115 14.658C74.0568 14.266 74.5282 14.07 75.1255 14.07C75.4242 14.07 75.7135 14.112 75.9935 14.196C76.2828 14.28 76.5162 14.378 76.6935 14.49L76.7215 15.414C76.4695 15.274 76.2222 15.1713 75.9795 15.106C75.7368 15.0407 75.5222 15.008 75.3355 15.008C74.9622 15.008 74.6822 15.1293 74.4955 15.372C74.3088 15.6147 74.2155 15.9927 74.2155 16.506V19.054C74.2155 19.446 74.2808 19.7307 74.4115 19.908C74.5515 20.0853 74.7615 20.174 75.0415 20.174C75.3028 20.174 75.5642 20.0853 75.8255 19.908C76.0868 19.7213 76.3902 19.4273 76.7355 19.026L76.7495 19.95C76.4042 20.342 76.0775 20.636 75.7695 20.832C75.4708 21.0187 75.1302 21.112 74.7475 21.112ZM76.8335 21C76.7495 21 76.7028 20.9533 76.6935 20.86C76.6748 20.6827 76.6562 20.4727 76.6375 20.23C76.6188 19.978 76.6095 19.782 76.6095 19.642L76.5535 19.376V11.564C76.5535 11.48 76.5908 11.438 76.6655 11.438H77.4355C77.5195 11.438 77.5615 11.48 77.5615 11.564V19.348C77.5615 19.6747 77.5662 19.9733 77.5755 20.244C77.5848 20.5053 77.5988 20.7013 77.6175 20.832C77.6362 20.944 77.5988 21 77.5055 21H76.8335ZM83.5419 21.112C83.1686 21.112 82.8233 21.0747 82.5059 21C82.1886 20.9347 81.8153 20.8833 81.3859 20.846V11.564C81.3859 11.48 81.4233 11.438 81.4979 11.438H82.2819C82.3566 11.438 82.3939 11.48 82.3939 11.564V20.048C82.5526 20.0853 82.7253 20.118 82.9119 20.146C83.0986 20.1647 83.2713 20.174 83.4299 20.174C83.8686 20.174 84.1859 20.048 84.3819 19.796C84.5873 19.5347 84.6899 19.1053 84.6899 18.508V16.156C84.6899 15.7547 84.6246 15.4653 84.4939 15.288C84.3633 15.1013 84.1579 15.008 83.8779 15.008C83.6259 15.008 83.3646 15.1013 83.0939 15.288C82.8233 15.4653 82.5246 15.7407 82.1979 16.114L82.1699 15.176C82.4966 14.8027 82.8233 14.5273 83.1499 14.35C83.4859 14.1633 83.8266 14.07 84.1719 14.07C84.6853 14.07 85.0679 14.238 85.3199 14.574C85.5719 14.9007 85.6979 15.4093 85.6979 16.1V18.578C85.6979 19.4647 85.5206 20.1087 85.1659 20.51C84.8206 20.9113 84.2793 21.112 83.5419 21.112ZM87.8571 23.59C87.8198 23.59 87.7918 23.5713 87.7731 23.534C87.7638 23.506 87.7684 23.4733 87.7871 23.436L88.5291 20.916L86.5691 14.336C86.5318 14.2333 86.5598 14.182 86.6531 14.182H87.5071C87.5631 14.182 87.6051 14.2193 87.6331 14.294L88.5431 17.626C88.6271 17.934 88.7064 18.2513 88.7811 18.578C88.8558 18.8953 88.9258 19.2033 88.9911 19.502H89.0191C89.0938 19.2033 89.1684 18.8907 89.2431 18.564C89.3271 18.2373 89.4064 17.9247 89.4811 17.626L90.3631 14.294C90.3911 14.2193 90.4378 14.182 90.5031 14.182H91.3291C91.4224 14.182 91.4504 14.2333 91.4131 14.336L88.7671 23.492C88.7578 23.5573 88.7158 23.59 88.6411 23.59H87.8571ZM97.362 21.112C96.4847 21.112 95.8173 20.8693 95.36 20.384C94.9027 19.8987 94.674 19.1893 94.674 18.256V14.588C94.674 13.6453 94.9027 12.9313 95.36 12.446C95.8173 11.9607 96.4847 11.718 97.362 11.718C98.2487 11.718 98.9207 11.9607 99.378 12.446C99.8353 12.9313 100.064 13.6453 100.064 14.588V18.256C100.064 19.1893 99.8353 19.8987 99.378 20.384C98.9207 20.8693 98.2487 21.112 97.362 21.112ZM97.362 20.174C97.9127 20.174 98.3327 20.0153 98.622 19.698C98.9113 19.3713 99.056 18.8767 99.056 18.214V14.63C99.056 13.958 98.9113 13.4633 98.622 13.146C98.3327 12.8193 97.9127 12.656 97.362 12.656C96.8207 12.656 96.4053 12.8193 96.116 13.146C95.8267 13.4633 95.682 13.958 95.682 14.63V18.214C95.682 18.8767 95.8267 19.3713 96.116 19.698C96.4053 20.0153 96.8207 20.174 97.362 20.174ZM105.12 21C105.046 21 105.008 20.958 105.008 20.874V16.072C105.008 15.6987 104.938 15.428 104.798 15.26C104.668 15.092 104.462 15.008 104.182 15.008C103.921 15.008 103.66 15.0967 103.398 15.274C103.137 15.4513 102.829 15.7313 102.474 16.114L102.432 15.246C102.787 14.8447 103.128 14.5507 103.454 14.364C103.781 14.168 104.131 14.07 104.504 14.07C104.999 14.07 105.372 14.2333 105.624 14.56C105.886 14.8773 106.016 15.3627 106.016 16.016V20.874C106.016 20.958 105.979 21 105.904 21H105.12ZM101.732 21C101.658 21 101.62 20.958 101.62 20.874V15.876C101.62 15.5307 101.616 15.2273 101.606 14.966C101.597 14.7047 101.583 14.4993 101.564 14.35C101.555 14.238 101.588 14.182 101.662 14.182H102.362C102.437 14.182 102.479 14.224 102.488 14.308C102.516 14.476 102.54 14.7 102.558 14.98C102.577 15.2507 102.591 15.4653 102.6 15.624L102.628 15.806V20.874C102.628 20.958 102.591 21 102.516 21H101.732ZM109.681 21.112C108.953 21.112 108.402 20.9113 108.029 20.51C107.655 20.0993 107.469 19.4833 107.469 18.662V16.492C107.469 15.6707 107.651 15.064 108.015 14.672C108.388 14.2707 108.929 14.07 109.639 14.07C110.348 14.07 110.885 14.2707 111.249 14.672C111.613 15.0733 111.795 15.666 111.795 16.45V17.71C111.795 17.794 111.762 17.836 111.697 17.836H108.477V18.536C108.477 19.1147 108.575 19.5347 108.771 19.796C108.967 20.048 109.279 20.174 109.709 20.174C110.054 20.174 110.311 20.0993 110.479 19.95C110.656 19.7913 110.735 19.5673 110.717 19.278C110.717 19.1753 110.754 19.124 110.829 19.124H111.599C111.655 19.124 111.692 19.166 111.711 19.25C111.729 19.838 111.561 20.2953 111.207 20.622C110.852 20.9487 110.343 21.112 109.681 21.112ZM108.477 16.926H110.787V16.506C110.787 15.9833 110.693 15.6053 110.507 15.372C110.329 15.1293 110.045 15.008 109.653 15.008C109.251 15.008 108.953 15.1293 108.757 15.372C108.57 15.6147 108.477 15.9927 108.477 16.506V16.926ZM115.887 21.112C115.01 21.112 114.343 20.8647 113.885 20.37C113.428 19.866 113.199 19.1287 113.199 18.158V14.672C113.199 13.7013 113.428 12.9687 113.885 12.474C114.343 11.97 115.01 11.718 115.887 11.718C116.485 11.718 116.989 11.844 117.399 12.096C117.819 12.3387 118.123 12.6887 118.309 13.146C118.505 13.6033 118.561 14.1447 118.477 14.77C118.477 14.8633 118.44 14.91 118.365 14.91H117.581C117.507 14.91 117.469 14.868 117.469 14.784C117.525 14.0933 117.418 13.566 117.147 13.202C116.877 12.838 116.461 12.656 115.901 12.656C115.36 12.656 114.94 12.8287 114.641 13.174C114.352 13.51 114.207 14.0233 114.207 14.714V18.116C114.207 18.8067 114.352 19.3247 114.641 19.67C114.94 20.006 115.36 20.174 115.901 20.174C116.48 20.174 116.905 19.9827 117.175 19.6C117.446 19.2173 117.553 18.6993 117.497 18.046C117.479 17.962 117.511 17.92 117.595 17.92H118.351C118.435 17.92 118.482 17.9713 118.491 18.074C118.566 19.026 118.37 19.7727 117.903 20.314C117.437 20.846 116.765 21.112 115.887 21.112ZM123.536 21C123.462 21 123.424 20.958 123.424 20.874V16.072C123.424 15.6987 123.354 15.428 123.214 15.26C123.084 15.092 122.883 15.008 122.612 15.008C122.351 15.008 122.08 15.1013 121.8 15.288C121.53 15.4653 121.231 15.736 120.904 16.1L120.862 15.232C121.208 14.84 121.544 14.5507 121.87 14.364C122.197 14.168 122.547 14.07 122.92 14.07C123.415 14.07 123.788 14.2333 124.04 14.56C124.302 14.8773 124.432 15.3627 124.432 16.016V20.874C124.432 20.958 124.395 21 124.32 21H123.536ZM120.148 21C120.074 21 120.036 20.958 120.036 20.874V11.564C120.036 11.48 120.074 11.438 120.148 11.438H120.932C121.007 11.438 121.044 11.48 121.044 11.564V20.874C121.044 20.958 121.007 21 120.932 21H120.148ZM129.077 21C129.021 21 128.979 20.9487 128.951 20.846C128.941 20.7153 128.923 20.524 128.895 20.272C128.876 20.0107 128.867 19.7867 128.867 19.6L128.811 19.362V16.128C128.811 15.708 128.745 15.4187 128.615 15.26C128.493 15.092 128.255 15.008 127.901 15.008C127.275 15.008 126.977 15.3067 127.005 15.904C127.005 15.9973 126.967 16.044 126.893 16.044H126.165C126.071 16.044 126.02 15.974 126.011 15.834C125.964 15.2833 126.109 14.854 126.445 14.546C126.781 14.2287 127.275 14.07 127.929 14.07C128.591 14.07 129.072 14.2287 129.371 14.546C129.669 14.854 129.819 15.372 129.819 16.1V19.32C129.819 19.684 129.823 19.992 129.833 20.244C129.851 20.496 129.865 20.6967 129.875 20.846C129.893 20.9487 129.861 21 129.777 21H129.077ZM127.131 21.112C126.701 21.112 126.37 20.9533 126.137 20.636C125.903 20.3187 125.787 19.8613 125.787 19.264C125.787 18.6013 125.955 18.088 126.291 17.724C126.627 17.3507 127.191 17.122 127.985 17.038L128.965 16.94V17.752L128.041 17.85C127.593 17.8967 127.271 18.0273 127.075 18.242C126.888 18.4473 126.795 18.7647 126.795 19.194C126.795 19.5113 126.846 19.754 126.949 19.922C127.051 20.09 127.205 20.174 127.411 20.174C127.635 20.174 127.863 20.0947 128.097 19.936C128.33 19.7773 128.629 19.4833 128.993 19.054L129.021 19.95C128.666 20.3607 128.344 20.6593 128.055 20.846C127.775 21.0233 127.467 21.112 127.131 21.112ZM131.523 21C131.449 21 131.411 20.958 131.411 20.874V14.308C131.411 14.224 131.449 14.182 131.523 14.182H132.307C132.382 14.182 132.419 14.224 132.419 14.308V20.874C132.419 20.958 132.382 21 132.307 21H131.523ZM131.929 12.978C131.705 12.978 131.537 12.9173 131.425 12.796C131.313 12.6747 131.257 12.5113 131.257 12.306V12.18C131.257 11.9747 131.313 11.8113 131.425 11.69C131.537 11.5687 131.705 11.508 131.929 11.508C132.153 11.508 132.317 11.5687 132.419 11.69C132.531 11.8113 132.587 11.9747 132.587 12.18V12.306C132.587 12.5113 132.531 12.6747 132.419 12.796C132.317 12.9173 132.153 12.978 131.929 12.978ZM137.509 21C137.434 21 137.397 20.958 137.397 20.874V16.072C137.397 15.6987 137.327 15.428 137.187 15.26C137.056 15.092 136.851 15.008 136.571 15.008C136.31 15.008 136.048 15.0967 135.787 15.274C135.526 15.4513 135.218 15.7313 134.863 16.114L134.821 15.246C135.176 14.8447 135.516 14.5507 135.843 14.364C136.17 14.168 136.52 14.07 136.893 14.07C137.388 14.07 137.761 14.2333 138.013 14.56C138.274 14.8773 138.405 15.3627 138.405 16.016V20.874C138.405 20.958 138.368 21 138.293 21H137.509ZM134.121 21C134.046 21 134.009 20.958 134.009 20.874V15.876C134.009 15.5307 134.004 15.2273 133.995 14.966C133.986 14.7047 133.972 14.4993 133.953 14.35C133.944 14.238 133.976 14.182 134.051 14.182H134.751C134.826 14.182 134.868 14.224 134.877 14.308C134.905 14.476 134.928 14.7 134.947 14.98C134.966 15.2507 134.98 15.4653 134.989 15.624L135.017 15.806V20.874C135.017 20.958 134.98 21 134.905 21H134.121Z" fill="black"/>
</svg>
