<svg width="125" height="32" viewBox="0 0 125 32" fill="none" xmlns="http://www.w3.org/2000/svg">
<path d="M122.373 9.68866H124.537V22.2094H122.373V18.2743L118.205 12.0676H118.062V22.2094H115.898V9.68866H119.278L122.373 14.5896V9.68866Z" fill="white"/>
<path d="M105.155 9.68866H113.812V11.7099H110.556V20.1882H113.812V22.2094H105.155V20.1882H108.392V11.7099H105.155V9.68866Z" fill="white"/>
<path d="M97.9175 9.68866H102.693V22.2094H100.529V16.8613H96.9516V22.2094H94.8231V12.8904L97.9175 9.68866ZM96.9516 13.5164V14.8401H100.529V11.7099H98.7045L96.9516 13.5164Z" fill="white"/>
<path d="M83.7045 9.68866H85.8688V15.0905L86.9062 14.5181H89.2136L90.1974 15.0905V9.68866H92.3617V22.2094H90.1974V17.2727L89.6966 16.5214H86.1729L85.8688 16.8613V22.2094H83.7045V9.68866Z" fill="white"/>
<path d="M74.8933 9.68866H80.2593L81.7082 11.8709L80.2772 13.3733L79.1861 11.7278H75.7161L75.3941 12.0855V19.4012L75.9128 20.1882H79.3471L80.6171 18.9182L81.7439 20.5996L80.2057 22.2094H74.8396L73.2298 19.8126V11.37L74.8933 9.68866Z" fill="white"/>
<path d="M63.7389 9.68866H70.7148V11.7099H64.5617L64.2398 12.0676V14.8758H68.3716V16.897H64.2398V19.4012L64.7585 20.1882H70.7148V22.2094H63.6853L62.0755 19.8126V11.3879L63.7389 9.68866Z" fill="white"/>
<path d="M58.0222 9.68866H60.1865V22.2094H58.0222V18.2743L53.8545 12.0676H53.7114V22.2094H51.5471V9.68866H54.9277L58.0222 14.5896V9.68866Z" fill="white"/>
<path d="M42.4855 9.68867H47.8694L49.4435 12.0855V20.4923L47.8158 22.2094H42.4497L40.8221 19.8126V11.4058L42.4855 9.68867ZM42.9864 19.4191L43.5051 20.1882H46.9393L47.2792 19.8305V12.479L46.7605 11.7099H43.3083L42.9864 12.0676V19.4191Z" fill="white"/>
<path d="M24.7737 9.26001C16.1117 -1.33208 6.61024 3.70897 2.94224 7.55351C3.29531 5.84701 10.3567 -1.44977 17.5358 0.256728C24.7149 1.96323 27.6864 7.27435 28.069 11.3196C28.4809 15.6741 26.4802 20.5732 22.4788 21.9705C19.513 23.0062 17.0846 21.8528 16.2412 21.1467C21.6549 21.4762 23.636 18.3025 23.9499 16.6745C23.4347 18.2937 21.9988 19.3472 20.9187 19.8799C20.5369 20.0681 20.125 19.7722 20.125 19.3466C20.125 19.1143 20.255 18.9022 20.4538 18.7821C24.5683 16.2968 24.0071 11.0822 23.1849 8.7304C27.3276 15.0386 23.6557 19.8717 21.3019 21.4998C22.6553 21.1075 25.5269 19.2048 26.186 14.7326C26.8451 5.92938 20.1838 2.86552 16.7708 2.43399C21.6196 3.75212 24.1264 7.53389 24.7737 9.26001Z" fill="white"/>
<path d="M9.77215 7.29431C-1.02122 15.7041 3.7944 25.3219 7.55139 29.0795C5.85368 28.6863 -1.27458 21.4548 0.600716 14.318C2.47601 7.1811 7.85572 4.33565 11.9088 4.04847C16.2719 3.73934 21.1224 5.85502 22.425 9.88831C23.3905 12.8777 22.1802 15.2782 21.4543 16.1047C21.9114 10.7003 18.7853 8.64487 17.1651 8.29273C18.7718 8.84599 19.7911 10.3063 20.2982 11.3987C20.4774 11.7848 20.1718 12.1896 19.7463 12.1796C19.5141 12.1741 19.3051 12.0391 19.1897 11.8376C16.8021 7.66557 11.5758 8.10371 9.20523 8.8702C15.6093 4.8774 20.3545 8.66226 21.9266 11.0538C21.5664 9.69148 19.7319 6.77578 15.2765 6.01146C6.49128 5.14502 3.27122 11.7322 2.75934 15.1341C4.19142 10.3177 8.03125 7.90073 9.77215 7.29431Z" fill="white"/>
<path d="M7.59226 22.7086C16.3547 33.2177 25.8078 28.0864 29.439 24.2072C29.1022 25.9169 22.1106 33.2806 14.9156 31.6425C7.72056 30.0045 4.69863 24.7219 4.27748 20.6805C3.82413 16.33 5.77813 11.4122 9.7661 9.9768C12.7219 8.91294 15.1611 10.0431 16.0112 10.7412C10.5946 10.4632 8.64379 13.6557 8.34546 15.2866C8.84525 13.6625 10.271 12.5954 11.346 12.0525C11.726 11.8606 12.1407 12.1526 12.1448 12.5782C12.147 12.8105 12.019 13.0238 11.8213 13.1458C7.73066 15.6701 8.34152 20.8792 9.18604 23.223C4.98349 16.9546 8.60924 12.0867 10.9474 10.4363C9.59779 10.8415 6.7444 12.7714 6.12794 17.2497C5.55272 26.0588 12.2428 29.0591 15.6598 29.4581C10.7986 28.1862 8.25595 24.4284 7.59226 22.7086Z" fill="white"/>
<path d="M22.9132 24.232C33.561 15.6386 28.5813 6.10478 24.7606 2.41204C26.4648 2.77612 33.7158 9.88445 31.963 17.0524C30.2102 24.2203 24.88 27.1575 20.8324 27.514C16.4753 27.8978 11.5893 25.8655 10.2178 21.8551C9.20127 18.8827 10.3703 16.4619 11.0818 15.623C10.7174 21.0345 13.8782 23.036 15.5042 23.3604C13.8883 22.8347 12.8441 21.3921 12.3185 20.3085C12.1327 19.9256 12.4312 19.5156 12.8569 19.5183C13.0891 19.5198 13.3004 19.6512 13.4192 19.8508C15.8779 23.9812 21.096 23.4537 23.4531 22.6467C17.1183 26.7486 12.3089 23.0455 10.6961 20.6813C11.0797 22.0372 12.9638 24.9211 17.4316 25.609C26.2304 26.3248 29.3372 19.6835 29.7907 16.2734C28.4413 21.1136 24.6435 23.5959 22.9132 24.232Z" fill="white"/>
</svg>
