<svg width="20" height="20" viewBox="0 0 20 20" fill="none" xmlns="http://www.w3.org/2000/svg">
<g clip-path="url(#clip0_4530_37212)">
<rect x="0.3125" y="0.3125" width="19.375" height="19.375" rx="4.6875" stroke="#E9ECEF" stroke-width="0.625"/>
<path fill-rule="evenodd" clip-rule="evenodd" d="M6.0626 7.3125C6.12508 7.375 6.18759 7.5 6.18759 7.625V12C6.25009 12.1875 6.18759 12.3125 6.0626 12.4375L5.00009 13.6875V13.875H7.9376V13.6875L6.87509 12.4375C6.81259 12.3125 6.75008 12.1875 6.75008 12V8.1875L9.37509 13.875H9.62509L11.8751 8.1875V12.75C11.8751 12.875 11.8751 12.9375 11.8126 13L11.0001 13.8125V14H14.9376V13.8125L14.1876 13.0625C14.1251 13 14.1251 12.875 14.1251 12.8125V7.1875C14.0626 7.0625 14.1251 7 14.1876 6.9375L15.0001 6.1875V6H12.2501L10.2501 10.9375L8.00008 6H5.1251V6.1875L6.0626 7.3125Z" fill="#303030"/>
</g>
<defs>
<clipPath id="clip0_4530_37212">
<rect width="20" height="20" rx="5" fill="white"/>
</clipPath>
</defs>
</svg>
