<svg width="16" height="16" viewBox="0 0 16 16" fill="none" xmlns="http://www.w3.org/2000/svg">
<path d="M13.5181 8.53813C13.625 8.28 13.625 7.95187 13.625 7.29688C13.625 6.64188 13.625 6.31375 13.5181 6.05562C13.4475 5.88496 13.3438 5.72989 13.2132 5.59927C13.0826 5.46865 12.9275 5.36505 12.7569 5.29437C12.4988 5.1875 12.1706 5.1875 11.5156 5.1875H7.4375C6.65 5.1875 6.25625 5.1875 5.95563 5.34062C5.69079 5.47549 5.47549 5.69079 5.34062 5.95563C5.1875 6.25563 5.1875 6.64938 5.1875 7.4375V11.5156C5.1875 12.1706 5.1875 12.4988 5.29437 12.7569C5.4375 13.1013 5.71125 13.3756 6.05562 13.5181C6.31375 13.625 6.64188 13.625 7.29688 13.625C7.95187 13.625 8.28 13.625 8.53813 13.5181M13.5181 8.53813C13.4475 8.70879 13.3438 8.86386 13.2132 8.99448C13.0826 9.1251 12.9275 9.2287 12.7569 9.29937C12.4988 9.40625 12.1706 9.40625 11.5156 9.40625C10.8606 9.40625 10.5325 9.40625 10.2744 9.51313C10.1037 9.5838 9.94864 9.6874 9.81802 9.81802C9.6874 9.94864 9.5838 10.1037 9.51313 10.2744C9.40625 10.5325 9.40625 10.8606 9.40625 11.5156C9.40625 12.1706 9.40625 12.4988 9.29937 12.7569C9.2287 12.9275 9.1251 13.0826 8.99448 13.2132C8.86386 13.3438 8.70879 13.4475 8.53813 13.5181M13.5181 8.53813C13.182 9.69749 12.5636 10.7554 11.7183 11.6171C10.8729 12.4788 9.82708 13.1173 8.67437 13.4756L8.53813 13.5181M10.8125 5.1875V4.625C10.8125 3.8375 10.8125 3.44375 10.6594 3.14313C10.5247 2.87838 10.3096 2.66309 10.045 2.52813C9.74375 2.375 9.35 2.375 8.5625 2.375H4.625C3.8375 2.375 3.44375 2.375 3.14313 2.52813C2.87829 2.66299 2.66299 2.87829 2.52813 3.14313C2.375 3.44313 2.375 3.83688 2.375 4.625V8.5625C2.375 9.35 2.375 9.74375 2.52813 10.0444C2.66313 10.3094 2.87813 10.5244 3.14313 10.6594C3.44313 10.8125 3.8375 10.8125 4.62563 10.8125H5.1875" stroke="#0E7BE9" stroke-linecap="round" stroke-linejoin="round"/>
</svg>
