<svg width="24" height="24" viewBox="0 0 24 24" fill="none" xmlns="http://www.w3.org/2000/svg">
<g clip-path="url(#clip0_1517_709)">
<path d="M5.5 12C5.5 13.7239 6.18482 15.3772 7.40381 16.5962C8.62279 17.8152 10.2761 18.5 12 18.5C13.7239 18.5 15.3772 17.8152 16.5962 16.5962C17.8152 15.3772 18.5 13.7239 18.5 12C18.5 10.2761 17.8152 8.62279 16.5962 7.40381C15.3772 6.18482 13.7239 5.5 12 5.5C10.2761 5.5 8.62279 6.18482 7.40381 7.40381C6.18482 8.62279 5.5 10.2761 5.5 12Z" stroke="white" stroke-width="1.5" stroke-linecap="round" stroke-linejoin="round"/>
<path d="M12 5.5C15.25 9.83333 15.25 14.1667 12 18.5" stroke="white" stroke-width="1.5" stroke-linecap="round" stroke-linejoin="round"/>
<path d="M12 5.5C8.75 9.83333 8.75 14.1667 12 18.5" stroke="white" stroke-width="1.5" stroke-linecap="round" stroke-linejoin="round"/>
<path d="M5.5 12H18.5" stroke="white" stroke-width="1.5" stroke-linecap="round" stroke-linejoin="round"/>
<path d="M11.25 1.5C11.25 1.69891 11.329 1.88968 11.4697 2.03033C11.6103 2.17098 11.8011 2.25 12 2.25C12.1989 2.25 12.3897 2.17098 12.5303 2.03033C12.671 1.88968 12.75 1.69891 12.75 1.5C12.75 1.30109 12.671 1.11032 12.5303 0.96967C12.3897 0.829018 12.1989 0.75 12 0.75C11.8011 0.75 11.6103 0.829018 11.4697 0.96967C11.329 1.11032 11.25 1.30109 11.25 1.5Z" stroke="white" stroke-width="1.5" stroke-linecap="round" stroke-linejoin="round"/>
<path d="M18.675 4.575C18.675 4.77391 18.7541 4.96468 18.8947 5.10533C19.0354 5.24598 19.2261 5.325 19.425 5.325C19.624 5.325 19.8147 5.24598 19.9554 5.10533C20.096 4.96468 20.175 4.77391 20.175 4.575C20.175 4.37609 20.096 4.18532 19.9554 4.04467C19.8147 3.90402 19.624 3.825 19.425 3.825C19.2261 3.825 19.0354 3.90402 18.8947 4.04467C18.7541 4.18532 18.675 4.37609 18.675 4.575Z" stroke="white" stroke-width="1.5" stroke-linecap="round" stroke-linejoin="round"/>
<path d="M21.75 12C21.75 12.1989 21.829 12.3897 21.9697 12.5303C22.1103 12.671 22.3011 12.75 22.5 12.75C22.6989 12.75 22.8897 12.671 23.0303 12.5303C23.171 12.3897 23.25 12.1989 23.25 12C23.25 11.8011 23.171 11.6103 23.0303 11.4697C22.8897 11.329 22.6989 11.25 22.5 11.25C22.3011 11.25 22.1103 11.329 21.9697 11.4697C21.829 11.6103 21.75 11.8011 21.75 12Z" stroke="white" stroke-width="1.5" stroke-linecap="round" stroke-linejoin="round"/>
<path d="M18.675 19.425C18.675 19.6239 18.7541 19.8147 18.8947 19.9553C19.0354 20.096 19.2261 20.175 19.425 20.175C19.624 20.175 19.8147 20.096 19.9554 19.9553C20.096 19.8147 20.175 19.6239 20.175 19.425C20.175 19.2261 20.096 19.0353 19.9554 18.8947C19.8147 18.754 19.624 18.675 19.425 18.675C19.2261 18.675 19.0354 18.754 18.8947 18.8947C18.7541 19.0353 18.675 19.2261 18.675 19.425Z" stroke="white" stroke-width="1.5" stroke-linecap="round" stroke-linejoin="round"/>
<path d="M11.25 22.5C11.25 22.6989 11.329 22.8897 11.4697 23.0303C11.6103 23.171 11.8011 23.25 12 23.25C12.1989 23.25 12.3897 23.171 12.5303 23.0303C12.671 22.8897 12.75 22.6989 12.75 22.5C12.75 22.3011 12.671 22.1103 12.5303 21.9697C12.3897 21.829 12.1989 21.75 12 21.75C11.8011 21.75 11.6103 21.829 11.4697 21.9697C11.329 22.1103 11.25 22.3011 11.25 22.5Z" stroke="white" stroke-width="1.5" stroke-linecap="round" stroke-linejoin="round"/>
<path d="M3.82495 19.425C3.82495 19.6239 3.90397 19.8147 4.04462 19.9553C4.18527 20.096 4.37604 20.175 4.57495 20.175C4.77386 20.175 4.96463 20.096 5.10528 19.9553C5.24593 19.8147 5.32495 19.6239 5.32495 19.425C5.32495 19.2261 5.24593 19.0353 5.10528 18.8947C4.96463 18.754 4.77386 18.675 4.57495 18.675C4.37604 18.675 4.18527 18.754 4.04462 18.8947C3.90397 19.0353 3.82495 19.2261 3.82495 19.425Z" stroke="white" stroke-width="1.5" stroke-linecap="round" stroke-linejoin="round"/>
<path d="M0.75 12C0.75 12.1989 0.829018 12.3897 0.96967 12.5303C1.11032 12.671 1.30109 12.75 1.5 12.75C1.69891 12.75 1.88968 12.671 2.03033 12.5303C2.17098 12.3897 2.25 12.1989 2.25 12C2.25 11.8011 2.17098 11.6103 2.03033 11.4697C1.88968 11.329 1.69891 11.25 1.5 11.25C1.30109 11.25 1.11032 11.329 0.96967 11.4697C0.829018 11.6103 0.75 11.8011 0.75 12Z" stroke="white" stroke-width="1.5" stroke-linecap="round" stroke-linejoin="round"/>
<path d="M3.82495 4.575C3.82495 4.77391 3.90397 4.96468 4.04462 5.10533C4.18527 5.24598 4.37604 5.325 4.57495 5.325C4.77386 5.325 4.96463 5.24598 5.10528 5.10533C5.24593 4.96468 5.32495 4.77391 5.32495 4.575C5.32495 4.37609 5.24593 4.18532 5.10528 4.04467C4.96463 3.90402 4.77386 3.825 4.57495 3.825C4.37604 3.825 4.18527 3.90402 4.04462 4.04467C3.90397 4.18532 3.82495 4.37609 3.82495 4.575Z" stroke="white" stroke-width="1.5" stroke-linecap="round" stroke-linejoin="round"/>
</g>
<defs>
<clipPath id="clip0_1517_709">
<rect width="24" height="24" fill="white"/>
</clipPath>
</defs>
</svg>
