<svg width="128" height="109" viewBox="0 0 128 109" fill="none" xmlns="http://www.w3.org/2000/svg">
<path d="M74.3967 39.81C66.5474 39.86 58.5764 39.47 51.1205 37.26C43.6647 35.05 37.0705 30.88 31.0759 26.01C27.1512 22.84 23.5825 20.32 18.4871 20.7C13.505 20.9795 8.73954 22.9641 4.89604 26.36C-1.58569 32.42 -0.602188 43.62 1.98301 51.5C5.87955 63.37 17.7377 71.61 27.8069 76.98C39.4497 83.19 52.2352 86.8 65.0581 88.87C76.2981 90.69 90.7322 92.02 100.464 84.18C109.409 76.99 111.863 60.55 109.672 49.45C109.138 46.1715 107.503 43.2133 105.073 41.13C98.7875 36.23 89.4208 39.5 82.3584 39.67C79.7825 39.73 77.0756 39.8 74.3967 39.81Z" fill="#F2F2F2"/>
<path d="M36.1243 1V5.3" stroke="#CFCFCF" stroke-width="0.85" stroke-linecap="round" stroke-linejoin="round"/>
<path d="M34.1106 3.15039H38.1383" stroke="#CFCFCF" stroke-width="0.85" stroke-linecap="round" stroke-linejoin="round"/>
<path d="M112.538 86.7109V91.0109" stroke="#CFCFCF" stroke-width="0.85" stroke-linecap="round" stroke-linejoin="round"/>
<path d="M110.524 88.8594H114.552" stroke="#CFCFCF" stroke-width="0.85" stroke-linecap="round" stroke-linejoin="round"/>
<path d="M5.6921 68.1397C6.19906 68.1397 6.61004 67.7009 6.61004 67.1597C6.61004 66.6184 6.19906 66.1797 5.6921 66.1797C5.18514 66.1797 4.77417 66.6184 4.77417 67.1597C4.77417 67.7009 5.18514 68.1397 5.6921 68.1397Z" fill="#CFCFCF"/>
<path d="M83.8476 5.44047C84.3546 5.44047 84.7656 5.00171 84.7656 4.46047C84.7656 3.91923 84.3546 3.48047 83.8476 3.48047C83.3407 3.48047 82.9297 3.91923 82.9297 4.46047C82.9297 5.00171 83.3407 5.44047 83.8476 5.44047Z" fill="#CFCFCF"/>
<path d="M58.4076 108.31C77.3928 108.31 92.7833 107.289 92.7833 106.03C92.7833 104.771 77.3928 103.75 58.4076 103.75C39.4225 103.75 24.032 104.771 24.032 106.03C24.032 107.289 39.4225 108.31 58.4076 108.31Z" fill="#F2F2F2"/>
<path d="M31.9282 12.6797H81.8525C83.0946 12.6797 84.2858 13.2065 85.1641 14.1442C86.0424 15.0818 86.5358 16.3536 86.5358 17.6797V81.0897C86.5358 82.4158 86.0424 83.6875 85.1641 84.6252C84.2858 85.5629 83.0946 86.0897 81.8525 86.0897H25.5307C24.2886 86.0897 23.0974 85.5629 22.2191 84.6252C21.3408 83.6875 20.8474 82.4158 20.8474 81.0897V24.6297L31.9282 12.6797Z" fill="white" stroke="#BABABA" stroke-linecap="round" stroke-linejoin="round"/>
<path d="M86.311 43.5801H34.8318V86.7001H86.311V43.5801Z" fill="#D2D2D2"/>
<path d="M20.8474 24.6297H29.9237C30.4562 24.627 30.966 24.3994 31.3417 23.9964C31.7173 23.5935 31.9282 23.0482 31.9282 22.4797V12.6797L20.8474 24.6297Z" fill="white" stroke="#BABABA" stroke-linecap="round" stroke-linejoin="round"/>
<path d="M86.0581 29.8105H35.1409C33.1596 29.8105 31.5535 31.5253 31.5535 33.6405V45.2705C31.5535 47.3858 33.1596 49.1005 35.1409 49.1005H86.0581C88.0394 49.1005 89.6455 47.3858 89.6455 45.2705V33.6405C89.6455 31.5253 88.0394 29.8105 86.0581 29.8105Z" fill="white" stroke="#BABABA" stroke-linecap="round" stroke-linejoin="round"/>
<path d="M41.4446 42.8206C43.1724 42.8206 44.5731 41.3253 44.5731 39.4806C44.5731 37.636 43.1724 36.1406 41.4446 36.1406C39.7168 36.1406 38.3162 37.636 38.3162 39.4806C38.3162 41.3253 39.7168 42.8206 41.4446 42.8206Z" fill="#D2D2D2"/>
<path d="M51.2796 42.8206C53.0074 42.8206 54.4081 41.3253 54.4081 39.4806C54.4081 37.636 53.0074 36.1406 51.2796 36.1406C49.5518 36.1406 48.1511 37.636 48.1511 39.4806C48.1511 41.3253 49.5518 42.8206 51.2796 42.8206Z" fill="#D2D2D2"/>
<path d="M61.1053 42.8206C62.8331 42.8206 64.2337 41.3253 64.2337 39.4806C64.2337 37.636 62.8331 36.1406 61.1053 36.1406C59.3775 36.1406 57.9768 37.636 57.9768 39.4806C57.9768 41.3253 59.3775 42.8206 61.1053 42.8206Z" fill="#D2D2D2"/>
<path d="M86.0581 51.1895H35.1409C33.1596 51.1895 31.5535 52.9042 31.5535 55.0195V66.6495C31.5535 68.7647 33.1596 70.4795 35.1409 70.4795H86.0581C88.0394 70.4795 89.6455 68.7647 89.6455 66.6495V55.0195C89.6455 52.9042 88.0394 51.1895 86.0581 51.1895Z" fill="white" stroke="#BABABA" stroke-linecap="round" stroke-linejoin="round"/>
<path d="M41.4446 64.2093C43.1724 64.2093 44.5731 62.7139 44.5731 60.8693C44.5731 59.0247 43.1724 57.5293 41.4446 57.5293C39.7168 57.5293 38.3162 59.0247 38.3162 60.8693C38.3162 62.7139 39.7168 64.2093 41.4446 64.2093Z" fill="#D2D2D2"/>
<path d="M51.2796 64.2093C53.0074 64.2093 54.4081 62.7139 54.4081 60.8693C54.4081 59.0247 53.0074 57.5293 51.2796 57.5293C49.5518 57.5293 48.1511 59.0247 48.1511 60.8693C48.1511 62.7139 49.5518 64.2093 51.2796 64.2093Z" fill="#D2D2D2"/>
<path d="M61.1053 64.2093C62.8331 64.2093 64.2337 62.7139 64.2337 60.8693C64.2337 59.0247 62.8331 57.5293 61.1053 57.5293C59.3775 57.5293 57.9768 59.0247 57.9768 60.8693C57.9768 62.7139 59.3775 64.2093 61.1053 64.2093Z" fill="#D2D2D2"/>
<path d="M86.0581 72.5801H35.1409C33.1596 72.5801 31.5535 74.2948 31.5535 76.4101V88.0401C31.5535 90.1553 33.1596 91.8701 35.1409 91.8701H86.0581C88.0394 91.8701 89.6455 90.1553 89.6455 88.0401V76.4101C89.6455 74.2948 88.0394 72.5801 86.0581 72.5801Z" fill="white" stroke="#BABABA" stroke-linecap="round" stroke-linejoin="round"/>
<path d="M41.4446 85.5902C43.1724 85.5902 44.5731 84.0948 44.5731 82.2502C44.5731 80.4055 43.1724 78.9102 41.4446 78.9102C39.7168 78.9102 38.3162 80.4055 38.3162 82.2502C38.3162 84.0948 39.7168 85.5902 41.4446 85.5902Z" fill="#D2D2D2"/>
<path d="M51.2796 85.5902C53.0074 85.5902 54.4081 84.0948 54.4081 82.2502C54.4081 80.4055 53.0074 78.9102 51.2796 78.9102C49.5518 78.9102 48.1511 80.4055 48.1511 82.2502C48.1511 84.0948 49.5518 85.5902 51.2796 85.5902Z" fill="#D2D2D2"/>
<path d="M61.1053 85.5902C62.8331 85.5902 64.2337 84.0948 64.2337 82.2502C64.2337 80.4055 62.8331 78.9102 61.1053 78.9102C59.3775 78.9102 57.9768 80.4055 57.9768 82.2502C57.9768 84.0948 59.3775 85.5902 61.1053 85.5902Z" fill="#D2D2D2"/>
<path d="M90.6664 54.1709C101.39 54.1709 110.083 44.8898 110.083 33.4409C110.083 21.9921 101.39 12.7109 90.6664 12.7109C79.9426 12.7109 71.2493 21.9921 71.2493 33.4409C71.2493 44.8898 79.9426 54.1709 90.6664 54.1709Z" fill="white" stroke="#BABABA" stroke-linecap="round" stroke-linejoin="round"/>
<path d="M104.454 48.4805L109.625 54.0005" stroke="#BABABA" stroke-linecap="round" stroke-linejoin="round"/>
<path d="M109.047 51.3195L107.442 53.1121C106.72 53.9185 106.747 55.1972 107.502 55.9681L121.45 70.2029C122.205 70.9738 123.403 70.945 124.125 70.1386L125.73 68.3459C126.452 67.5395 126.425 66.2608 125.67 65.4899L111.722 51.2552C110.967 50.4843 109.769 50.513 109.047 51.3195Z" fill="white" stroke="#BABABA" stroke-linecap="round" stroke-linejoin="round"/>
</svg>
