<svg width="12" height="11" viewBox="0 0 12 11" fill="none" xmlns="http://www.w3.org/2000/svg">
<path d="M6.05059 8.5223C5.74514 8.5223 5.49757 8.2748 5.49757 7.96938C5.49757 7.66403 5.74514 7.41653 6.05059 7.41653C6.35584 7.41653 6.60344 7.66401 6.60344 7.96938C6.60342 8.2748 6.35584 8.5223 6.05059 8.5223ZM6.05059 6.68704C5.79512 6.68704 5.58735 6.47928 5.58735 6.2238V2.75989C5.58735 2.50455 5.79512 2.29682 6.05059 2.29682C6.30588 2.29682 6.51366 2.50455 6.51366 2.75989V6.22379C6.51364 6.47928 6.30588 6.68704 6.05059 6.68704ZM6.0505 0.102448C3.07564 0.102448 0.664154 2.51398 0.664154 5.48884C0.664154 8.46384 3.07564 10.8754 6.0505 10.8754C9.02526 10.8754 11.4369 8.46384 11.4369 5.48884C11.4369 2.51398 9.02526 0.102448 6.0505 0.102448ZM6.0505 10.1572C3.47646 10.1572 1.38233 8.06308 1.38233 5.48884C1.38233 2.91476 3.47647 0.820623 6.0505 0.820623C8.62453 0.820623 10.7187 2.91476 10.7187 5.48884C10.7187 8.06308 8.62453 10.1572 6.0505 10.1572Z" fill="#99A0AD"/>
</svg>
