<svg width="20" height="20" viewBox="0 0 20 20" fill="none" xmlns="http://www.w3.org/2000/svg">
<rect x="0.3125" y="0.3125" width="19.375" height="19.375" rx="4.6875" stroke="#E9ECEF" stroke-width="0.625"/>
<path fill-rule="evenodd" clip-rule="evenodd" d="M14.7502 7.5625C14.6252 7.125 14.3127 6.8125 13.8752 6.6875C13.1252 6.5 9.93768 6.5 9.93768 6.5C9.93768 6.5 6.81269 6.5 6.00019 6.6875C5.56269 6.8125 5.25018 7.125 5.12518 7.5625C5.00018 8.375 5.00018 10 5.00018 10C5.00018 10 5.00018 11.625 5.18769 12.4375C5.31268 12.875 5.62518 13.1875 6.06268 13.3125C6.81268 13.5 10.0002 13.5 10.0002 13.5C10.0002 13.5 13.1252 13.5 13.9377 13.3125C14.3752 13.1875 14.6877 12.875 14.8127 12.4375C15.0002 11.625 15.0002 10 15.0002 10C15.0002 10 15.0002 8.375 14.7502 7.5625ZM9.00018 8.5L11.6252 10L9.00018 11.5V8.5Z" fill="#303030"/>
</svg>
